<mxfile host="www.draw.io" modified="2019-10-29T09:19:00.975Z" agent="Mozilla/5.0 (Windows NT 10.0; Win64; x64) AppleWebKit/537.36 (KHTML, like Gecko) Chrome/77.0.3865.120 Safari/537.36" etag="cFVNwgE8op6fdD0YXp5K" version="12.1.7" type="github" pages="1">
  <diagram id="v_HsGd2-cP82k8bL8M8z" name="Page-1">
    <mxGraphModel dx="1233" dy="813" grid="1" gridSize="10" guides="1" tooltips="1" connect="1" arrows="1" fold="1" page="1" pageScale="1" pageWidth="850" pageHeight="1100" math="0" shadow="0">
      <root>
        <mxCell id="0"/>
        <mxCell id="1" parent="0"/>
        <mxCell id="6VEUIB0EuY8hzefAT8qt-11" style="edgeStyle=orthogonalEdgeStyle;rounded=0;orthogonalLoop=1;jettySize=auto;html=1;entryX=0.5;entryY=0;entryDx=0;entryDy=0;fontSize=17;" edge="1" parent="1" source="6VEUIB0EuY8hzefAT8qt-4" target="6VEUIB0EuY8hzefAT8qt-6">
          <mxGeometry relative="1" as="geometry"/>
        </mxCell>
        <mxCell id="6VEUIB0EuY8hzefAT8qt-4" value="" style="shape=mxgraph.bpmn.script_task;html=1;outlineConnect=0;" vertex="1" parent="1">
          <mxGeometry x="245" y="143" width="30" height="27" as="geometry"/>
        </mxCell>
        <mxCell id="6VEUIB0EuY8hzefAT8qt-10" style="edgeStyle=orthogonalEdgeStyle;rounded=0;orthogonalLoop=1;jettySize=auto;html=1;fontSize=17;" edge="1" parent="1" source="6VEUIB0EuY8hzefAT8qt-5" target="6VEUIB0EuY8hzefAT8qt-4">
          <mxGeometry relative="1" as="geometry"/>
        </mxCell>
        <mxCell id="6VEUIB0EuY8hzefAT8qt-5" value="eMargin" style="rounded=0;whiteSpace=wrap;html=1;fontSize=17;fontStyle=1" vertex="1" parent="1">
          <mxGeometry x="200" y="60" width="120" height="50" as="geometry"/>
        </mxCell>
        <mxCell id="6VEUIB0EuY8hzefAT8qt-6" value="" style="rounded=0;whiteSpace=wrap;html=1;fontSize=17;" vertex="1" parent="1">
          <mxGeometry x="75" y="200" width="370" height="320" as="geometry"/>
        </mxCell>
        <mxCell id="6VEUIB0EuY8hzefAT8qt-9" value="&lt;font style=&quot;font-size: 13px&quot;&gt;Mapping xml to mo_policy&lt;/font&gt;" style="label;whiteSpace=wrap;html=1;image=img/clipart/Gear_128x128.png;fontSize=17;" vertex="1" parent="1">
          <mxGeometry x="190" y="220" width="140" height="60" as="geometry"/>
        </mxCell>
        <mxCell id="6VEUIB0EuY8hzefAT8qt-13" value="XML request" style="text;html=1;strokeColor=none;fillColor=none;align=center;verticalAlign=middle;whiteSpace=wrap;rounded=0;fontSize=12;" vertex="1" parent="1">
          <mxGeometry x="282.5" y="150" width="75" height="20" as="geometry"/>
        </mxCell>
        <mxCell id="6VEUIB0EuY8hzefAT8qt-15" style="edgeStyle=orthogonalEdgeStyle;rounded=0;orthogonalLoop=1;jettySize=auto;html=1;entryX=0.75;entryY=1;entryDx=0;entryDy=0;fontSize=12;curved=1;" edge="1" parent="1" source="6VEUIB0EuY8hzefAT8qt-14" target="6VEUIB0EuY8hzefAT8qt-9">
          <mxGeometry relative="1" as="geometry"/>
        </mxCell>
        <mxCell id="6VEUIB0EuY8hzefAT8qt-14" value="mapping_rule" style="shape=cylinder;whiteSpace=wrap;html=1;boundedLbl=1;backgroundOutline=1;fontSize=12;" vertex="1" parent="1">
          <mxGeometry x="340" y="290" width="85" height="50" as="geometry"/>
        </mxCell>
        <mxCell id="6VEUIB0EuY8hzefAT8qt-28" style="edgeStyle=orthogonalEdgeStyle;curved=1;rounded=0;orthogonalLoop=1;jettySize=auto;html=1;entryX=0.5;entryY=0;entryDx=0;entryDy=0;endArrow=classic;endFill=1;fontSize=12;startArrow=none;startFill=0;fillColor=#f5f5f5;strokeColor=#000000;" edge="1" parent="1" source="6VEUIB0EuY8hzefAT8qt-16" target="6VEUIB0EuY8hzefAT8qt-26">
          <mxGeometry relative="1" as="geometry"/>
        </mxCell>
        <mxCell id="6VEUIB0EuY8hzefAT8qt-16" value="mo_policy object" style="shape=parallelogram;perimeter=parallelogramPerimeter;whiteSpace=wrap;html=1;fontSize=12;" vertex="1" parent="1">
          <mxGeometry x="190" y="360" width="130" height="50" as="geometry"/>
        </mxCell>
        <mxCell id="6VEUIB0EuY8hzefAT8qt-21" value="" style="endArrow=classic;html=1;fontSize=12;entryX=0.538;entryY=0;entryDx=0;entryDy=0;entryPerimeter=0;" edge="1" parent="1" source="6VEUIB0EuY8hzefAT8qt-9" target="6VEUIB0EuY8hzefAT8qt-16">
          <mxGeometry width="50" height="50" relative="1" as="geometry">
            <mxPoint x="260" y="330" as="sourcePoint"/>
            <mxPoint x="260" y="350.71067811865476" as="targetPoint"/>
          </mxGeometry>
        </mxCell>
        <mxCell id="6VEUIB0EuY8hzefAT8qt-23" style="edgeStyle=orthogonalEdgeStyle;curved=1;rounded=0;orthogonalLoop=1;jettySize=auto;html=1;fontSize=12;endArrow=none;endFill=0;fillColor=#f5f5f5;strokeColor=#666666;" edge="1" parent="1" source="6VEUIB0EuY8hzefAT8qt-22" target="6VEUIB0EuY8hzefAT8qt-13">
          <mxGeometry relative="1" as="geometry"/>
        </mxCell>
        <mxCell id="6VEUIB0EuY8hzefAT8qt-22" value="" style="shape=image;verticalLabelPosition=bottom;labelBackgroundColor=#ffffff;verticalAlign=top;aspect=fixed;imageAspect=0;image=data:image/png,iVBORw0KGgoAAAANSUhEUgAAAy0AAADWCAYAAADcrW1BAAAgAElEQVR4AeydB1gUV9fH//ReRQFFigg2EFFREXssscRILLFFjVGjviaapjHRV/OqnzGJid0k9miigRi7Jhpj7yiCBRRBBURAigLSpHzPuWTWXdhllxYBz32eZWbu3Pqbmcs9c865o1VYWFgIDkyACTABJsAEmAATYAJMgAkwgWpKQLuatoubxQSYABNgAkyACTABJsAEmAATEARYaOEbgQkwASbABJgAE2ACTIAJMIFqTYCFlmp9ebhxTIAJMAEmwASYABNgAkyACbDQwvcAE2ACTIAJMAEmwASYABNgAtWaAAst1frycOOYABNgAkyACTABJsAEmAATYKGF7wEmwASYABNgAkyACTABJsAEqjUBFlqq9eXhxjEBJsAEmAATYAJMgAkwASbAQgvfA0yACTABJsAEmAATYAJMgAlUawIstFTry8ONYwJMgAkwASbABJgAE2ACTEC3NATp6emlnS71XHx8POzs7EpNwyeZABNgAkyACTABJsAEmAATYAISATMzM2lXYcuaFgUcfMAEmAATYAJMgAkwASbABJhAdSPAQkt1uyLcHibABJgAE2ACTIAJMAEmwAQUCLDQooCDD5gAE2ACTIAJMAEmwASYABOobgRYaKluV4TbwwSYABNgAkyACTABJsAEmIACARZaFHDwARNgAkyACTABJsAEmAATYALVjQALLdXtinB7mAATYAJMgAkwASbABJgAE1AgwEKLAg4+YAJMgAkwASbABJgAE2ACTKC6EWChpbpdEW4PE2ACTIAJMAEmwASYABNgAgoEWGhRwFG1B1lZeZgx4wTMzdeIn59fACIiHldtpZVYen5+IZYvD0aLFltx/vxDWck1vV+yjvAOE2ACTIAJMAEmwASYQLUkUCuEliVLgkC/6h6MjHSxbFlXpKVNxeHD/kqbW1wAcHLagLFj/8TJkw9QUFCoNI+6yMrko6+vgzp1DKGtrSWrVpN+yRLzDhNgAkyACTABJsAEmAATKCOBGiO00IT92LEYrF4dotBFevufnZ2nEFcbDsaPb4GEhEkICxuDfv1cMH36caxZEwrqb1lCZfLR0dHClCktcfLkULRrZ1eWZoi0Fy/GY8WKq8jMfFbmvJyBCTABJsAEmAATYAJM4OUlUCOEloyMZ1i48CIWLLgomyxLGgkrq7VYuvQKFi26qNTsSkr366+3cfp0HEaOPIT69dfhlVd2ykyzaBIdGBiBYcMOgjQbZP60YMEFpKbmiDvj/v009OixE3v3RincKWFhKejSJRCXLyfK4mNjM/D++8dl5SxefKlCk3RjYz0MG+aO6dO9sWXLTdy+napRXVK/1fFR13eqLCDgtoytZNombx4ma5CanUaNLHDrVirGjTui0A812fg0E2ACTIAJMAEmwASYwEtOoFoLLYWFQHBwIoYM2S8u0969A+HjYyv2JZMk0kaQVuLzz9sJsysyvTpzZhjc3CwVLu2PP17Dt99ewSeftEFMzATs2TMQrq4WIk1YWCpOnIjF/PkdEBU1HlRPaGgS1qwJEZoNBwczdO3aQAg9OTn5snLPnXsIZ2dzWV2JiZn45JNTsLY2REjIaPz5p78oZ+3aa2XWkMgqAaClBfj51QeZZt28mSJOqatLUz7q+k6VkdBEXOl3+fJIeHrayDdP430bGyOsXNkNI0c2wdixh7FtWzjkeWpcECdkAkyACTABJsAEmAATeKkIVFuhhTQFq1ZdxUcfncLs2e0wd257mJrqlfvikAC0eLEfvL3rgcycqCzJL6NNm3pYtao7mje3FudImOnb11loBZ4+fSbiunZ1EM7n0dHpog2PH+fg6NEY9OzpCHNzfRFH2pr09FxMmuQJS0sDODiYYtIkD/zxxz3ExWWUu+2UkfxI6tUzxp07RY77lVWXur5XqNFKMhPzQYNcERjYH6dOPcCUKX+DtFMcmAATYAJMgAkwASbABJiAKgK6qk686PiHD58Kc6wPPvBG5871hbahIm3q1csR7u5WKot49CgL+/ffxZEj93H3bhry8gpAGhbaUmjVqi4aNjQDaVdIixMZ+QTx8U/h62svzpOQFR6eKjRBtrbGsnqoDNImxMdnivyyE+Xc0dXVRmXXpa7v5WxqqdlIoJs5sy0++OAELlyIh4ND41LT80kmwASYABNgAkyACTCBl5dAtRVayP9h9erumDPnHI4fj8Xs2T4g86LyBnrDT2ZWygL5usyadRqTJ3sKjYuVlSECA29j+/bbsuSkOenY0V6YiPn7u+Lo0Wi0aWMLR0czkYYECdIYnD0bh+DgR7J8tEPmYnp6FVNqJSdng0zCyBytMuvSpO8KnamEAxLiSFNEiyrMmtUWAwc2qoRSuQgmwASYABNgAkyACTCB2kqg2gotBJw0I1u29MbGjTcwZMgBzJvXHmSmJZl1URotLS1hvkWri5EJmCrBRNUFzM7Ox65ddzBggAtGj25Wav4ePRpi9+5IoRk4cyYOM2Z4w8BARxRNPiROTmZCC7Ngga8sXlW9ZYmnflF9ubn5woStLHWVxqcsfS9Le0tLS+Z18+efF0IcmYiRxoUDE2ACTIAJMAEmwASYABMojUDFXv+XVnIlnaMJ+tSpXvjuuy5YvDgI69dfVyjZ0FAHXl51ceRING7cSBbfMiGNB2kmNAmkASFNCDneP3iQIbQYhw7dw/LlV0tkJ+0P+cTQimAkDDRrVkeWhto5fLi7MC/74YdrwreFBCkyIzt48F4JR/w6dYyEsHXlSqIwQaPJvDKndFrdi1bvoo86TpzogaZNrVGWukrjU5a+yzqqZqe0fhFjf/99IOFvxYpuLLCoYcmnmQATYAJMgAkwASbABIoIVHuhhZpJ2hMSFn7/fQBatiy5ctUbbzQG+ay8+eZBODisF0sOR0Zq9qV5csqfMMEDdnbG8PP7FZ06BYCWMiazpeKBtCrdujng0qUE4YAv77tCaTt0sMe2ba8iPDwFHh5bRVvmzj0rnP6La4BIAJo2zQtffRUER8cNmDfvHBISMmVVknbJ1vZHNGv2Ew4evIvly7uJdkrllKUuVXzK0ndZw9TslNYvWrAgIKA/Ro9uWqmaKDVN4tNMgAkwASbABJgAE2ACNZyAVmEhGR8pD+npRStlKT9bemx8fDzs7Mr+AcLSS+WzTIAJMAEmwASYABNgAkyACdRWAmZmRf7ixftXIzQtxRvNx0yACTABJsAEmAATYAJMgAm8PARYaHl5rjX3lAkwASbABJgAE2ACTIAJ1EgCLLTUyMvGjWYCTIAJMAEmwASYABNgAi8PARZaXp5rzT1lAkyACTABJsAEmAATYAI1kgALLTXysnGjmQATYAJMgAkwASbABJjAy0OAhZaX51pzT5kAE2ACTIAJMAEmwASYQI0kwEJLjbxs3GgmwASYABNgAkyACTABJvDyEGCh5eW51txTJsAEmAATYAJMgAkwASZQIwmw0FIjLxs3mgn8+wRycvIxc+ZprFoVAtWfpP3328U1MgEmwASYABNgArWfAAstVXCNlywJAv3+jaCqrqysPMyYcQLm5mvEz8lpA8aO/RMnTz5AQUFhuZqmqq5yFaYiU2ZmJtavX48ePXrA3NwcAwcOxKFDh1BQUKCQIzQ0FKNGjRJpKO1vv/2GvLw8WZr8/HxcvXoVy5Ytg6+vL5YsWSI7J+1QesonX9eJEydQWMYZuSZ1adovqW2qtprUpUkaVeWXFh8dnY7LlxPQqVN9aGmVllL5uX/j/pFqVlVXTX0upH7xlgkwASbABJjAy0qAhRYlV54m9ceOxWD16hAlZ0uPys8vRHb288lz6akrdlaTusaPb4GEhEkICxuDfv1cMH36caxZEwrKW5agSV3qyrt4MR4rVlxFZuYzpUlpsr1q1SqcPXsWGzduRHJyMqZMmYL58+fj3LlzsjyRkZH44IMP0KdPHyQkJGDu3LlYtGgRdu/eLUtDO9ra2mjZsiVcXFwU4umABJNt27ZhzZo1+Oabb2R1ffbZZzhz5kyJ9OoiSqtL036pq0M6X1pdZUkjpaWtJvf8uXMP4e5uBXd3S/msGu1Xxv2jUUWAuLfVPYM16bnQtN+cjgkwASbABJhAbSagW5s7V56+ZWQ8w7ffXsHx47FYsqSTrIi8vAIcPHgP69dfF+fc3CzRp48Txo5tLiZyNEmaPfsMNm68IcuzaNFFse/paYPNm3uD8tCE/cCBewgMjMCFCw9haqqP4cPdMW1aK1hZGYj09DaYyvL1tUeDBqZYsyZE1NmsmTW+//4VODiYqq2L0sgHY2M9DBvmDiqbhLFXXmkIKk9de6S2qOsX1RUbm4GvvgrCnj2Rol+jRzfF9OmtQHVTaNTIAlu2hGHcuCNYuNBXcJNvo46OjhBGtLS0oKtbdGt27twZXl5eOH/+PPz8/ISwQZoXV1dXvPHGGzAyMkK3bt3wzjvvYO/evejdu7fQvlBZJLBkZWWJePl6aD89PR1///03Ro8ejdatW4vTlPfKlStC+9KmTRtRdvF8yo7V1aVJv5SVqyxOXV2UR5M08mWruufl06Sl5eKvv6LRs6ej7HrSeX4uSn/eiVFFnwv568D7TIAJMAEmwAReVgKsafnnypNFUHBwIoYM2S9i9u4dCB8fW9l9cfp0nBAUZszwxuPHU3D8+BB4eNjg1q1UkcbISBfLlnUVWg16i/v55+2QljZV/M6cGSYEFkoYFpaKEydiMX9+B0RFjQfVExqaJAST4tqPH3+8JgSoTz5pg5iYCdizZyBcXS2gaV2yxv+zQyY9fn71oa+vg5s3U0SsuvZoWldiYiY++eQUrK0NERIyGn/+6S/6tXbtNZlWx8bGCCtXdsPIkU0wduxhbNsWDvKTkA96enoygUU+3tDQUBxmZ2fj1q1baNKkCUxNiwQzEnLat2+Pu3fvIj4+Xj6byn0yNyOBhoQeKdBkv127drhx4waSkpKk6ErZqutXpVRSxkLU3fPyxUVEPEZSUha6dm0gHw1+LiahtOe9sp4LBeh8wASYABNgAkzgJSTAQgsgtA+rVl3FRx+dwuzZ7TB3bnuYmhZpB6R7IjMzD8+e5YMmyPQzM9MXk++BAxuVyb6/TZt6WLWqO5o3t4aOjpYQQvr2dRbCz9OnimZTNKlcvNgP3t71RFpqk7Z2OZwJpE4AqFPHEPXqGePOnccitiztkSumxC5pjtLTczFpkicsLQ2ENmjSJA/88cc9xMVlyNJT+wcNckVgYH+cOvUAU6b8Ld5EyxIU2wkJCUF4eLjwO6FTJGjExsaiYcOGQvvi7e0tNCOWlpbC7yUlpUgYK1ZMiUMzMzO0atVKaGGoPBJigoKC8PXXX4P8T0g4qspQvF9VWZeyskmDpu6el/LRfXj0aDS8vOrC3l5Rg8fPhURJ+baqngvltXEsE2ACTIAJMIHaS4CFFgAPHz7F3r1R+OADb3TurNzJmMypPv64Ld599y+MGnVImHc9epRVrjuD8m3adBMjRx6Cr++vWLs2FOnpz4SpjXyBvXo5ljChkj9fkX1d3eeXXtP2qKqPJsDh4alCM2VrayxL5uBgJjQp8fGZsjhph8zXZs5sK97eX7igXDuSmJgofFwGDx4Md3d3KWulbEmrMnXqVDRv3lz4xnh6emLnzp14++23hXkVnScBacaMGcLcjBYFkP/5+/tDUwGpeIOV9auq6ipet3SsyT0vpU1IyMTZsw+FOaS+/vP7hs7zcyFRKrmtqueiZE0cwwSYABNgAkyg9hNgn5Z/fC1Wr+6OOXPOCd+R2bN9QKZM8sHAQAekOXjrraYICXmEXbsi8fnnZzBhggfee6+VMNmST69qn8xpZs06jcmTPYXGxcrKEIGBt7F9++0SWUgrUZ5VmkoUJBeRnJwNMllxdjYXsWVpj1wxCrs0OSO7/bNn4xAc/EjhHJmL6ekpTnTJJIzeQJNvzaxZbUHaquIhNTUVCxcuRP369TFx4kQhSFAaMudycHDAo0ePMGzYMAQHB4usly5dEo731tbWxYtSeWxlZSWc+MmRXwrbt2+Hs7MzbGxsRF20+hj9KiuU1q/Krqu0NpN/kbp7Xsp/5Uqi0PCRb1bxwM9FcSLPj6viuXheOu8xASbABJgAE3i5CLDQ8s/1plWRtmzpLRzphww5gHnz2qNrV4cS5ljk49Ghg734kVMyLSPcvXtDmf8LmY6R2RetxkRmNfJCR3Z2PnbtuoMBA1wwenQzhXPlue1Kq0tZedSeM2fikJubL8zTytKe0uoiJk5OZsJvZ8ECX9BEVlWgZXPnzz8vBBkyESu+YADlo4n9vHnzRBFz5syBsfFz7Q35tpA/y/Xr14UZF52jlcDI3MrR0RH16tVTVbXaeHLOP378uPBrIfOxyg6l9auy69KkPE3ueRIwaVGKHj0aCn8lVeXyc1Hyea/s50IVe45nAkyACTABJvAyEFB8Bf4y9LiUPtIkY+pUL3z3XRcsXhwkVgqj5OQgv3LlVcyZcxb37qUJgYTeopLGhZzx5U2iDA11hO3/kSPRuHEjWaQlLQRpOEjjQJoHcrx/8CBD+NIcOnQPy5dfLaVVqk+VVlfxXLRKWEDAbSxfHoyJEz3QtKl1mdpTWl3EjVZAO3LkPn744ZrwbSGhLTLyiVhxTVpggPrt779PTIBXrOimVGAh0ykyyaLwxRdfgLQh8oGEp169euH27dvCl4XMqmg55C1btoBMtsi3RdNASyvv2LFDmIGRwELLLZMzP30bhuqpzKCuX5VZV1nKUnXPS2VERT3B+fMPlX6bhZ8L4N96LqTrwVsmwASYABNgAi8rAa3CUr6kRxO58gZaxcnOzq682V94PloG9vr1JKFRocaQkzmZhO3eHSkmcWTW1b27A6ZMaYkWLeootJfykpBDq2OlpmaLMj79tC3atbMD+Qd8+eUl/P77HWGCNmpUUzRubCl8XDZs6CmEGhKIaMlje3sTYT6lUHixA1V1kSmP/BLMtJxyt24OeOcdDzEBlRz6NWmPVKWquqhfFEhII5OvAwfu4tmzAlHf5MktZfWRwEcTXVoBTVkg5/fPP/8c69atK3GafE42b94MNzc3cY4+LkkfjNy3bx/atm0r/FMGDRokW3ksICAAEyZMUFlO48aNhbZm7dq1OHDggEj3+uuvY+bMmcL8rETGUiLU1UWLBmjar1KqEafU1UV8NEmjrJ7i9zyl+emnMND3WZYu7ayw1LGUn58LoKqfC4k1b5kAE2ACTIAJvAwEVFm7sNDyMlx97iMTKAcB+jbLtGnHhDkjfeOHAxNgAkyACTABJsAEqpqAKqGFzcOqmjyXzwRqKAHp2yzt29dcjWkNRc/NZgJMgAkwASbABIoRYE1LMSB8yASYABNgAkyACTABJsAEmMCLIcCalhfDnWtlAkyACTABJsAEmAATYAJMoIIE2DysggA5OxNgAkyACTABJsAEmAATYAJVS4CFlqrly6UzASbABJgAE2ACTIAJMAEmUEECLLRUECBnZwJMgAkwASbABJgAE2ACTKBqCbDQUrV8uXQmwASYABNgAkyACTABJsAEKkiAhZYKAuTsTIAJMAEmwASYABNgAkyACVQtARZaqpavRqUvWRKEGTNOICsrT6P0nIgJlIVATk4+Zs48jVWrQlBYWJac5UvL93P5uHEuJsAEmAATYAJMQDUBFlpUs3khZ0hwIQHG3HyN+Dk5bcDYsX/i5MkHKCgo34yTJpH0q8qQmZmJ9evXo0ePHjA3N8fAgQNx6NAhFBQUKFQbGhqKUaNGiTSU9rfffkNe3nNhLT8/H1evXsWyZcvg6+uLJUuWKOSnA0pP+eTrOnHiBArLOCPXpC5N+1WikcUiNKkrIiICfn5+gg0xlH7KGBQrvtTD6Oh0XL6cgE6d6kNLq9SklX6ypt7PlQ6CC2QCTIAJMAEmwAQqRICFFiX4SDg4diwGq1eHKDn770SNH98CCQmTEBY2Bv36uWD69ONYsyYU+fllE1wofXb2c6GgPK2/eDEeK1ZcRWbmM6XZaUK+atUqnD17Fhs3bkRycjKmTJmC+fPn49y5c7I8kZGR+OCDD9CnTx8kJCRg7ty5WLRoEXbv3i1LQzva2tpo2bIlXFxcFOLpgASTbdu2Yc2aNfjmm29kdX322Wc4c+ZMifTqIkqrS9N+qatDOl9aXVIaQ0NDnDx5EmlpabLfrFmzpNMltprcq+fOPYS7uxXc3S1L5P+3ImrS/fxvMeF6mAATYAJMgAkwAc0JsNBSjFVGxjMsXHgRCxZcRLt2dgpnY2Mz8P77x0HajxYttmLx4ksKE/mAgNvi/OHD9zFy5CHUr78Or766C5cuJcjKoUnm3r1R6NFjpzhPWpSrVx/JzhffMTbWw7Bh7pg+3RtbttzE7dupIgkJEIGBERg27KCsPQsWXEBqao44L73htrJai6VLr2DRoosy7Y2fXwAiIh7LqlLXr0aNLHDrVirGjTsiq1+WGYCOjo4QRn788Uc4OztDT08PnTt3hpeXF86fPy+SkrBBmhdXV1e88cYbMDIyQrdu3fDOO+9g7969YoJOCaksElhIy1KvXj35asR+eno6/v77b4wePRqtW7cWdfXu3Rv9+vUT2pesrKwSeVRFqKtLk36pKrt4vLq6KD0Je9nZ2TAxMSmeXelxafeqlCEtLRd//RUNX1970L0kH9Rd95f1fpZnxPtMgAkwASbABJhA9SDAQss/14Esi4KDEzFkyH4Rs3fvQPj42MquUmJiJj755BSsrQ0REjIaf/7pj9DQJKxde01B+3HgwF0EBETgyy874fbtcWjevA5WrrwKmjxSOHToHj744AQmTvTAvXvvYMYMb7W+LGTS4+dXH/r6Orh5M0WUExaWihMnYjF/fgdERY0HtZfas2ZNiGiPkZEuli3rKrQ19Jb788/bIS1tqvidOTMMbm5Fb9016ZeNjRFWruyGkSObYOzYw9i2LRzkJyEfSFDR1dWVjxL7pDmgQJPxW7duoUmTJjA1NRVxWlpaaN++Pe7evYv4+HgRp+4PmZuRYEJCjxRIIGjXrh1u3LiBpKQkKbpStur6VSmVlLEQdfeqfHEknCYlZaFr1wby0dDkulOGl/V+VoDFB0yACTABJsAEmMALJ8BCCyCEhlWrruKjj05h9ux2mDu3PUxNFd9Kk1YjPT0XkyZ5wtLSAA4Oppg0yQN//HEPcXEZsgtJwsAXX3SAo6OZKGPw4Ma4dy9NTBzpzfiePVEYPNgNb7zRGPr62vD2rifegssKULFTp44h6tUzxp07RRqSNm3qYdWq7mje3Bo6OlpwdbVA377OQiPy9KlyMy5lRWvaL21tLQwa5IrAwP44deoBpkz5G/SmXlUICQlBeHi48DuhNCRoxMbGomHDhkL74u3tLTQjlpaWwu8lJaVIGFNVnhRvZmaGVq1aCe0MlUdCTFBQEL7++muQ/wkJR1UZiverMuuSGJH2ifxZ2rRpg2+//RapqUXaNaqLNGjq7lWpTSTcHD0aDS+vurC3LxIUpXOaXne+nyVivGUCTIAJMAEmwAReJAEWWgA8fPhUmGx98IE3Oncu6axME8Xw8FShebG1NZZdLwcHM6FxiI/PlMUZGemBtBxSIIGC/EroR2+3w8NT0LZtPRgY6EhJyrTV1X1+yR49ysKmTTeFKZqv769YuzYU6enPkJen6PyuqoKy9Esqg4S1mTPbCiHswgXl2pHExETh4zJ48GC4u7tLWStlS1qVqVOnonnz5sI3xtPTEzt37sTbb78tTMvoPE3+Z8yYIXNklxzaaevv7w9NBaTiDVbWr8qsi/pCvjoHDhzAkydPsGXLFuzfv1/47uTkFJn9qbtX5duckJCJs2cfok8fJyEgS+fKct35fpao8ZYJMAEmwASYABN4kQSez65fZCtecN3ks7F6dXfMmXMOx4/HYvZsH5BJlBRokkdahbNn4xAcrOh/QuZienrPBQkpj7KtJLwoO6cuLjk5Wwg9zs7mIunp03GYNes0Jk/2FBoXKytDBAbexvbtt9UVJTtf1n6RSRi9oacFCmbNaouBAxvJypJ2SCuwcOFC1K9fHxMnThSCBJ0jcy4HBwc8evQIw4YNQ3BwsMhy6dIl4XhvbW0tFaF2a2VlJZz4yZFfCtu3bxf+NDY2NqIuWn2MfpUVSutXZdVFbe/fv7+syR4eHsJ3h/pGAhNpqdTdq7LMAK5cSQRpyDw9beSjhbaG72eIFw7q7mcFcHzABJgAE2ACTIAJvDACLLT8g55WV9qypTc2bryBIUMOYN689uja1UFM+khz4uRkJvxAFizwLbeWpG5dI9Svb4KwsBSheSEtjCaBzHzOnIlDbm6+MAfLzs7Hrl13MGCAC0aPblbqMrbkN0L10AIAVI78krdl6Rctmzt//nkhoJGJGGlcigea2M+bN09Ez5kzB8bGz7VS5NtC/izXr18XZlx0jpzzydzK0dFRqdN98fJVHZNz/vHjx4VfC5mPVXYorV+VXZey8vT19RX8hUq7V6X8JGCSAN6jR0PhhyXF07Ys110+X/H92n4/F+8vHzMBJsAEmAATYAIvjoBmKoIX175/tWaazE2d6oXvvuuCxYuDsH79dVE/xQ8f7o4jR+7jhx+uCd8WEgIiI5/g4MF7QgDRpKEWFgZiEkmO+vTdldzcAuGY/9NPYSqz0yphtIrT8uXBwnm/aVNrITiQhocc7x88yBBvzsnBf/nyqyXKMTTUET4NR45E48aNZCG80Ft20txo2i+qx99/n2j7ihXdlAospAkgkywKX3zxBUgbIh9IeOrVqxdu374tW+WLlkMmEygy2SLfFk0DLa28Y8cOYQZGAgstt0zO/PRtGKqnMoO6flVWXWSy9u677+LXX38VQh19i4ZWSduwYQNodbTiK6mpulel9kRFPcH58w+VfptF0+sulaVqW5vvZ1V95ngmwASYABNgAkzgxRBgoaUYd5rzknP8778PQMuWz81qOnSwx7ZtrwqfFFhmjBIAACAASURBVA+PrXBwWI+5c88KZ3tN58mUbty45njvPS98/PFJuLltEm/Dx4xpVqwVEBofW9sf0azZTzh48C6WL++GCRM8hKaENCe0b2dnDD+/X9GpU4DQ3pDJlrJATv+9ejnizTcPinbTss2RkUUO/Zr0y9xcHwEB/TF6dFOlWiZyfqcPIO7atQubN2+Gk5OTzJ+EPpZIH02kQJqW7777Dn/++SdsbW1B2pjp06dj0KBBsmYHBASIvHSevvlC33EhXxSpHNLOkDaFvmXStGlTkAnVw4cPRVrS2JQlqKtL035pUqe6usg87vPPPxeaJ1oumo7J7GzmzJmYPHmyzMxOvi5V9yqloWW2W7Soo/LbLJpcd/m6lO3X1vtZWV85jgkwASbABJgAE3ixBLQKaRaoItBb7PIGWsLWzk7xOyflLYvzMQEmoDkBWl572rRjwnyQvvHDgQkwASbABJgAE2ACNYWAKlN/1rTUlCvI7WQCGhKQvs3Svj2/NNAQGSdjAkyACTABJsAEqjkB1rRU8wvEzWMCTIAJMAEmwASYABNgAi8LAda0vCxXmvvJBJgAE2ACTIAJMAEmwARqGQE2D6tlF5S7wwSYABNgAkyACTABJsAEahsBFlpq2xXl/jABJsAEmAATYAJMgAkwgVpGgIWWWnZBuTtMgAkwASbABJgAE2ACTKC2EWChpbZdUe4PE2ACTIAJMAEmwASYABOoZQRYaKllF5S7wwSYABNgAkyACTABJsAEahsBFlpe0BXNzy/E8uXBaNFiK86ff1juVlRWOeVuwAvMWBP7XpBfgOPLj2NRi0W4d/7eC6RX/as+suQIds7YiWdZz6p/Y1/yFubk5GPmzNNYtSoEqj9XXDFIlfW8V1Y5FevNi8n9Mvf9xRDnWpkAE6hMAiy0VCbNMpalr6+DOnUMoa2tVcaciskrUk5KSjb8/fcjIOC2YqEv+GjJkiDQT12oSN/VlV1V53X0dWBSxwRaFbzuVdW+4uWS8EA/VSE3Mxdn15/Fih4r8LH5x2J7bsO5aitsxD2NQ/Ofmosf7b99+G2YrzHHnsg9si5SnPNGZ4Qmhcrivgz6UpbnxIMTsFtnh5VXV8rO007E4wg02dIEc87OQSEKxbm03DTMOj1LlEf1ULmfnvkUGc8yxHlN2qNQiZKDrKwszJgxQ/xoXwoBAQHw8/NDRESEiCp+TJGnT58WaWhb3hAdnY7LlxPQqVN9aFVsOCu1CZX1vFekHB4zS71EfJIJMAEmUGUEWGhRgragoBDHjsVg9eoQJWcrJ0pHRwtTprTEyZND0a5d+b9cXlnlVE6vKqcUehuYnZ2ntrCa2HdtHW10ntIZM07OgFM7J7V9fNEJSDP0LFu1poMElv1z9+P6/uvwX+qPr1K/wsh1I5ESnYKMpKJJ+YvuQ3nrT8lOwbrr62TCh3w5He074jWX17Dp5ibEZ8aLUySkbLm5BYa6hpjkOQla0MKTnCd48+Cb2Be1Dz++8iNSJqdg14BdiHwciftp9+WLLHX/4sV4rFhxFZmZqq9FqQWoOHnr1i3MmzdPCDsk3CgLmoyH5849hLu7FdzdLZUVUSlxlfW8V1Y5ldKpSiqkOo2ZVXWvVhIqLoYJMIEaTEC3Bre9SpqekfEM3357BcePx2LJkk6yOsjk4eTJB1i69LI45+ZmiYkTPTB2bHMYGRVhzMrKw+zZZ+Dra48GDUyxZk2ISNusmTW+//4VUB7SaEyY8JesXNo5fNgfHTrYy+KorqCgBHz33RVERDzGrVupsnPjx7fA4sV+2LcvSm05VNfp03EYMMAFmzffFG1p2dIGCxZ0hI+PraxMdTua9J3KSE3NwaZNN/Dzz+Gi3d26OWDCBA/06+cMXV1tMeE6cOAeAgMjcOHCQ5ia6mP4cHdMm9YKVlYGkPht3HhD1qRFiy6KfU9PG2ze3LtMDNVdr8riQxP3GwduIDgwGPcu3IOBqQHaDG+DLtO6wNjKWLT/SsAV/DLhF1m/aGfa4Wlw7uAsiyMzqL2z98LZ1xmWDSxxas0pRByPgF0zOwz/fjjqutUFlXPrr1to5NcIF7ZcQEJ4Apr2aoq+/+0LG1cbUVZhYSEiT0bi6NKjIj/l85voh/Zj20PPSE+kUVeXpYOlaMu5jedk7ftz0Z9iv75nfby1+S3RHmoL1TV602jYexTdw9SO/l/0l+XTpD2FBYVC8Dm27JisT3m5eTC3NZeVQzuPYx/jyFdHcG3PNcHZZ7QPuk3vBn1jfYV0pR2Y6ZnBwcwB+QX5MNUzRWPLxjDXN0cD0wYK2eoZ18PR6KO4lnQNLW1aKpzT09bDu57vYtC+QQi8HYj3Wr2Hu0/uYuednRjbfCwczRxF+p/CfkLwo2D82u9XdG3QVcR51/NGYP9AWXmatKdRIwts2RKGceOOYOFCXyEgyAoo505iYiLmz5+PAQMGwN/fH1pKVCSqxkP5KtPScvHXX9Ho2dMRxsZF9xed12TckJ55HjNrz5hZFfeq/P3G+0yACby8BFho+efa0z/Yq1cThdDRsWN97N07EKamz/8BHzx4F++/fxwLF3bEzp0DhCBBxzExGfjvf9vDwEBHdhf9+OM1WFgYYO7cdti69VUxGTc2LkI9bJg76EeBBJJx4w7L8kk7d+48xkcfncR777XC4MGNsXPnHSEMkODj6GgmkmlSDiU8cOAuMjPz8OWXnWBtbYj//vccVq68ilWrusPcXLOJniZ9T0zMxPTpJ4SpW0BAfzg7myM4OBG7dkWic+cGQigJC0vFiROxmD+/A5o0scK9e2n49NPTQrj79FMfIfwtW9ZVCGUk/Nnbm2DWrLYSFtlWk75r0ubK4hMfFo+IExHoN78f6jWph5R7Kdjz6R4hdPT6tBdIu9J6WGvxozofRTzC1nFbZf0pvnP2x7MwsjBCn7l9MGbrGGFmJT8pv7zjMizqW2Di7xORn5ePQ/87JH5Dlg+BkaURbh68icD3AzFg4QBM2DkBibcSxXFqTKoQbnQNnj/2quoi07XBywZj4OKBQngxtzdHr1m9FJqal50n+k0ClCQwKST450CT9tw8dBM7P9gp2uw92BtxN+Jw6ItDCsWlJ6Zj1ye7YNvEFrNDZiMnI0ccn157Gt1mdEPus6dYv34w7t07r5CPDiwtHfDee3/BwqI+dLV1YaRrJNKQ8FHHsA70dfRlcVJmEmJIoCBty4puK6Ro2darrhf6OvcV2pah7kOFloXKGdlkpEjz9NlTHLx3UAg8reu2luUrvqNJe2xsjLByZTfs3RuFsWMP4z//8cLQoW4K407xcks7fvr0Kb7//nvUrVsX7777LnR1n98TlE/deChfNo1jSUlZ6NpVUejT9BmksnjMrD1jZmXfq/L3Gu8zASbwchNg8zBACBWrVl3FRx+dwuzZ7TB3bnsFgYXeNu7ZE4XBg93wxhuNoaenDQ+POpgxwxv0j5n+acsH+odP2hBv73ogUwQSfsritxIamiQm+d27O4h8tKU6L11KkK9Go33S7nzxRQch7FA7SAgiYYEmGZoETfv+xx/3QXbtJJC4ulqIfrdta4tFizqKvlBdbdrUE8JS8+bW4jyl69vXWQiAT59WntmLpm2mNlWUD5Xh2MYRw1YNg11zOyGg0AS+ed/mSLiVgNynuZpgVkhDmonXFr+Ght4NRXmkuZH3f2nyShN0e7+bEFBMbUzhM9IHkacjkRiRKCbyoXtC0WpwK7R6oxV09HSEBqT7jO64cfCGEJjkK1NXl3za4vtkNpYanQoSaCQNTvE0JFioa0+JNPo6ou8uvi4KxZEmKyc9B36T/ETfSRtE+zf/uIkncU9gaGiGadMO45tv0kr85sy5KQQWKpAEFmsDa/GjfXsTexjqGMLK0EqhPgMdA4xrPk5oW64nXVc4Rwck8JCG5XHOY3wd9DUCIgIwocUEmZYl/Vk6YjNi0cCkAcz0i142lCikDO2hMWTQIFcEBvbHqVMPMGXK34iNVTTB27hxI2xtbWFubi5+EyZMKFFlZmYmvvnmG6xbtw6kbSEBRj6Q9qO08VA+LY11R49Gw8urLuztTWWnyvIMUiYeM2vXmKnJvSq7WXiHCTABJqAhARZaADx8+FS8wfzgA2907lzSkZS0COHhKWjbtp7Cm00y+yJzCHnzLeLeq5djhcw3yNwsL68Qz54ViMtIWzqWzNA0vLYimZGRnkI+EqLI/pl+mgRN+p6bW4CwsBS0bl0PDg7PJy7Kyn/0KAubNt3EyJGH4Ov7K9auDUV6+jPk5RX1VVmessZp0mapzIrykcrJeJSB85vOY/PIzVjquxT09p8m2AXl6BeZe9VzrycVrXZLTv3mduZIvpsM0kaQyZhjW0fIa1TIxIy0NSRIyYey1iWfV5N9TdqjKo18+WTOJvrl4wgz2+cCgJWDFfJy8pAWnyafXO3+pt6bQD8Kr7u+jptjbqK+Sf0S+To36Iwm1k2w8cZGkIBXPHjaeKK/S3+hjSEBiDQu5QmatofKpmds5sy24sXDhQtF/jRSnePHj0dCQgLS0tLEb/369dIp2TYyMhLBwcFYtWoVUlJScODAAYW+qRsPZQUBSEjIxNmzD9GnjxP09Z//OynLM0jl8ZgpT1VxvyaPmaXdq4q95CMmwASYgHoCijYB6tPXyhRkg7t6dXfMmXNO+H3Mnu0DUnGXN9BbJiXm4RoXR1ocElRIe/Hmm274++8YcUzx1TGQo25ubr7appF/zaxZpzF5sqfQuFhZGSIw8Da2b69eK5ep7UixBKTl2DNrDzpN7iQ0LkZWRsK/5fL2y8VSanZIWhVl/gWqctNkmnxCSCNT1lDWuuTL1zPUg5WjlfAzIaFClbZFPo+y/cL8QpDDf2mByid/lqizUYgNjlVIamxtLDRK2dnpGpmHKWRWc2Csa4xJHpPw8amP0d6ufYnU5Gz/VtO38Pud3zG48WDYGT9fVEP4qpg6IDo9GrSCGPnNVDTQ0sLkE0aLhJDp5MCBjcpcpKmpqfBlGTx4MAoKCoTGhZzw3dzcRFllGQ+vXEkU2mDyOatI4DFTOb2aPGZWxr2qnArHMgEm8LISeP5q7GUl8E+/aeWbLVt6g/5hDxlyQKweRpNxCvXqGaNpU2sEBSWCBmIpkHaBVvMh/4zKDOT/0qiROWhCMHLkH7hxIxnr1/eU+bNUZl3qytKk74aGOsI8hNpJb1iVhezsfOzadUcsCjB6dDPhX6NKsKMJO2mEiL+Sl9vKileI06TNChkqcEB+HSG7QuAxwAPkFE4T6LIIHBWoWpaVNBBkqmXtaA2zemawbWqL6KBooYGQEpHfDS0YQP4gZQnUFy0dLSEUFdc06Brqwq2rm/jeTFJkktJiNWmPaV1T4aNDbVQlvJBAZO1kDTKNG//reEzaPUnh59DKQWPzMKUNLSWym0M3NDJvhEsJl5Sm0tbSFiuF6Wg/92ujhCZ6Jujn3A83Um4IZ3ylmcsQSeaXZBJGpmFkIkamYjTZL2twcXFBq1atoK2tjf79+6Nhw4bYvn078vKer9hX2ngo1UdjIS1Y0qNHQ/E8S/G0/TefQaqPx8zqNWZW1r0qf0/xPhNgAkyAhRa5e4DMr6ZO9cJ333XB4sVBWL++yI6dfEFef70Rjhy5LxzbSQsSHp4KWuWqXz8X4RchV0yFd0+ceAAyuSL/kN27X8P//Z/fCxFYqCOa9v3VV51ga2uML764IHxmyPyMHPEnTToqzOfIJ4cWAiB/nQcPMoQf0aFD97B8+dUSvCQh6MiRaCGwkfBCtvvJydkl0iqL0LTNyvKWNU5bTxsm1iZ4EPoATx48EU7z5FROH5CsqhBzJQbXD1wXdZHAQit8tejXQqzmRdqWlq+3RPiRcLGiWf6zfGFWJZ+mLO0iwcTBy0GUF38jXggvpPF4mlzkB9GkZxO4dnHFvjn7EBMcI4QOEmC2jN6C0N2hQvujrj2GFoZw7+GO4IBgsRJZfm4+iOHFn4pWjqP2ktBCK7JRv07/cBrZ6dmiLVQX+eqoEnbK0ldVacnsa6rXVMRlxKlKojJ+TLMx8K7rjSlHp+Dw/cPIK8hDcGIw2vzSBsuDl6vMV/wEPTf+/vuEgLBiRTe1ZpjF86s6Jkf8t956C7t27cK1a9cUkqkaD6VEUVFPxIdxlX2b5d98Bqk9PGYWvTiqDmNmVd2r0n3HWybABF5eAmweVuza09t/cqD//fcBuH79+dtjEk5oiV5a8phW/JJf8lh+5bBixZXrsGNHe2zbFg4Xl40K+WkJYVokoCzLFSsUUMoBLcOsailmTfpOb1ZpdaMffriGwYP3y5Y8fuedFmIlMdKc0PLHX355CX5+vwrzu1GjmgoTF/JxKR5owQMSbt588yBSU7PFktCfftoWdeo8N78pnkf+WJM2y6cv7z6tDNZxQkcc/vIwvvX7FiY2JvAZ5SNW2iIfl6oI5IAefzMeX7X9ShRPGp6u73WV+bA079dcCAu05DGtUia/5LG8n4umbfN6wwuPHzzGxjc3IjM1Ey4dXECropEvDfnJDFgwAEG/BGHXR7uEhof8aYhBsz7NRBWatKfDuA5CQ/X7x7/jadJTIaC0G9MOaQ+f+6rQ8tBjt43FydUn8X8e/wcSyNy6uQmzvKrWbpG2hb7NEvkkUlNsIp2FgYVY7njRxUWYdHQS6Nsv1obWGN5kON7xeEfjsmilP1qVjxavqOzQpUsXtGvXDps2bUKTJk1gbFy0TDfVo2o8pHO0MEiLFnVUfpvl33oGqS08ZkIsElMdxsyqvFcr+97n8pgAE6hZBLQKi9t8yLU/PT1d7qhsu/Hx8bCz02yCWbaSa3dqMof6/vtQxMSkCwFFcr4nU4wFCy4IDcWiRX4gbQSHl48AfaeFfGVGbRglTNFePgLc4+pAgL7NMm3aMWHuKS3h/qLaxWPmiyLP9TIBJsAEqoaAmdnzBXfka2DzMHka1WCfTM/IHpi+8yJvr04r+ty+/Vh8uJIFlmpwobgJTOAlJiB9m6V9+xf/YorHzJf4RuSuMwEm8FIRYE1LNbzc5L+xZk0IaDlTMzN94ZBO/iDjx7cA2Y/LCzPVsPncpCokwJqWKoTLRddYAjxm1thLxw1nAkyACZQgoErTwkJLCVQcwQSYABNgAkyACTABJsAEmMCLIKBKaGHzsBdxNbhOJsAEmAATYAJMgAkwASbABDQmwEKLxqg4IRNgAkyACTABJsAEmAATYAIvggALLS+COtfJBJgAE2ACTIAJMAEmwASYgMYEWGjRGBUnZAJMgAkwASbABJgAE2ACTOBFEGCh5UVQ5zqZABNgAkyACTABJsAEmAAT0JgACy0ao1JMeP78Q5ibr8F77x0XH3xUPPvvHaWkZGPGjBPo0WMngoMT/72KVdRU3dqjopkvLLom8slMycTOGTuxoscKxATHvDB21b3ie+fv4WPzjxH4XiCeZT2r7s196dsXFpYCH5/tWLYsWCwrrwwIj/PKqAA1cRxT3pOqiWU+VcOVS2UCLLRU03uABj1///1qhaLIyCcICLiNoKAEHDkSDfo6dFWE6tSe6jKRkOdcnfjIt6sy9h9FPgJ9HyY6KBq3jtxCYVXdZJXRWAAkZK3zX1eq8JCdlo0Tq05gSZslQtCg9JGnI6tt394+/DbM15jjlZ2vIDYjFr139RbHY/4cg0IUPfS03XFrB5puaSrO1f2hLib8NQEPnz5UIPso6xHabm8r0nj/7I3ETMWXHcXLaby5sShXqocK06Q9CpWWcpCWloYxY8bA3NwcI0eOxJMnT2SpU1JS4O/vD19fX9y+fVvER0REwM/PD6+//jqSkpJkacu68/ffMXjyJAedOzd4Yd++qm7jRnVqD4/zZb2jOT0TqP0EdGt/F8veQ5qTnTz5AGlpOXjttUZlL6ASciQnZyMxMRMODqallubhUQf//W973LqViuHDm0BLq9Tk5T5Z3dpT7o5UUcbazKe+R330/W9fJNxKQOvhraFVVTdZJV2bp8lPkZ6YDksHS6Ul0rndn+xGyK4Q2flbR29BW1cbNi42sGhgIYuvSTtbw7bi/ePvo6CwQDQ7Jz8HAbcDoAUtrOmxBnraeiL+6qOruPvkrji+n34fwY+C0cepj6yrP4f/jPeOvYf8wnwRR0LN5L8nI7cgF2OajZGlU7ezf/9dmJrqoWtXh1LHpaioKJw/fx52dna4cOECIiMj0bp1a3XFl3pe3Rj++HEOzp59iO7dG8LdXfl9UmoFlXSyuo0b1a09lYS50oqpTnw0fb4qrfNcEBOoBgRYaCl2EZKSsrBy5VWsW3cdS5d2kZ3NycnH1q1h+O67YBga6qBLlwayc/I7oaFJWLr0stB62NubYPZsHwwa5Apd3SKlVl5eAQ4evIfNm2+C3iRRmj59nDBpkiecnMxx585jjBt3GNeuFb1BpO2WLTdFFd27O2DDhl4wMdHD7NlnsHHjDfmqMWSIGxwdzURcVlaeSHP37hN88YUvfv31NvbujUKrVnXxv//5wtW1aGJGX5L+5Zdw7NsXhZCQJDRsaIZp07wwblxzGBnpIiKictpDjZImEsTn+PFYdOxoj9mz2wmWNA/WtM0KnVZxoK4uKVt0dDrWrg0VbGJi0vHqq86i/5061RdvX2srn8exjxH0SxCu7buGByEPYNXQCl2mdUGHcR2gZ6QnzJv2zt6LcxvPSajE1nuIN6wdrWVxjyIeYeu4rfAY4IGOEzrizI9ncPOPm9DV18Xw74cLwYHKSYxIRLsx7RD0c5DQ2HSc2BHdZ3SHsZWxKIu0N5EnI3F06VFEHI+AS0cX9JndB65dXGVCkrq6qCBqS9y1OFEmbS9suSD23bq7YdSGUTCpYyK0RiSwtB/XHn0+6wNzO3MQj4KCApnAokl78nLycHHrRRz77hh0DXXRuEtjUVfxP3GhcaJf4UfCYW5vjt6ze8NrkJcQkp48icPKlT3x+HFs8WxwcvLBxIm7YGhoDnsTe3HeytAK1gbWsDKwEsdS/NNnT7H91nYhsHzd+WtM8JiA3Pxc/BbxGzrV7yQTWCjTsZhjIq9/Y39x/q/ov2RCS2pOKn4I/UFob2b7zMYnbT7B0itLsfjSYqy7tg6vNXpN1C3Vq6o9VEFm5jOMHHkI77/fCjNmeMPGxkjUW/zPlStXRNSkSZPw7bffIigoqEJCi6oxXL7eq1cf4dixGKxe3QOmpvqyUzzOV+z/DoFUN/byOF/0UrSi/wc1fb5kNzfvMIFaQIDNw/65iAUFhfjzz/vo02eXECg+/7wdBgxwkV3iPXsi8eGHJ8VxgwamOHw4WnZO2iEhZMSIQ2JC3rp1PRE9fvwRBAZGSElEHZMnHxU2wdOne4u3kHv2RGHnzjvIzc2Hnp423Nws4eNjK/KQEEHCSo8eDeHgYCYm0vSmmyYAFEfnKI2qcOxYLLp0CcSFC/EiCQkn69dfR25ugfjnsnt3JBYuvAh9/SJBLCMjF7Nmncb27bdE+spsz8GDdzFixEGQSVu3bg6IicnAa6/tEQKTfPtLa7N8utL2NamLtFMkIK5eHQJrawPB8saNZJnASP98ayMfmpCH7A7BHwv/EMIFTbZzMnKwZ9YeBG0PEljpHjOxMYF7D3fQhJ+EmtJCQngCdry7A0eWHBFCkJGFEYytiwQSyhd5KhJ7Zu5BYUGhmLjTRJ8EnIL8Iq3AzYM3sWnEJiRFJsGtmxsexzzG9699j+v7rpeoVlVd2nraqOtWF04+TiIPtZnaTn2wcrCCtrY2ctJzcP/ifSGo+IzyEVtKTFoZeWFMk/aE7gnF7x/+LuqybGCJ8MPhJdpKfi7ULxLEGrZuKM7/PP5nXAksmqjr6xvD03Mg2rYdUeLXpElP6OgUaUcczRxFXhIWjPSMYGdsJ44dTB2EJkVbSxv6OkWTb9KuhD4KFcdvNXsLLhbPx7EnOU9w5uEZ1DWqC39Xf1gbWuP8w/MgYYVCRGoEotKiUN+kPkY1HQVdbV2xbWDaABFPIhCWEibSqWsPJaLxc/FiP/Gyp2vX38TYR+OsfMjMzMSlS5fQtGlTdO3aFS1atBBCS0ZGhnwyjfbVjeFSIfn5hThxIhZNm1qjZUsbBS0Qj/MV/7+jydhL14LH+Yr9H9Tk+ZLued4ygdpCgDUtAB4+fIr588+LifqIEU2EdoS0HpIVTFpaLkgVa2dnjPXre6JDB3ucPRuHvn13y+4DeuuxZUsYUlOzxdu7119vhPj4TEya9JeYlPfr5wwLCwOEh6ciI+MZevVyFG8gSZuRnp4rNDEGBjpwdjbH5s29hRamd+9dQjD56qtOQushqwzAnDntxKH01qq41kU+7dq1PfDmm+5Ck0JCQ1EbcmFtbYjhw90xcGAjYYamra2FEyceYOLEIzh9Og5Dh7pVWnuIIWl7yFxk48ZeaN/eDpcvJwohZseOW+jatYEQnKR2l9ZmKY2qrSZ10dvV336LEL5A8+Z1ENoV4i9dC2JBoTbyIYGkzfA28BzoKSbzWtpauHPiDn6Z+Ivw6/Ae6g1DM0O8OudVwYCcypVpXeT5k+aiWZ9m+DT4U9RpVAeF+YWgckkbIYURP45A095NQZoH0ohEnY2Cb6qvEJwu/3oZBqYGGLVxFJzbOyP6cjQ2j9iMyzsuo3HXxiAhSAqq6iItylub3wIJCqt6rxLCyqCvBgnNkZQ3KSoJKfdSYNvMFjauNlK0wpb8XdS1hxhe339dCD0j14+Ecwdn3D17F2v6rpGVlZuZKzQ9mamZGLZ6GFq+3hJp8WnYPmm7EMZa9GsBIwtLvP76l7I8qnZcLV2FtsTd0l0IKc2sm4njxpZF2h0jXSN81PojXE64jEsJl9D1t65CIzK3/VwhdNB5ChGPIxD5OBLN6zSHp40nGpg0EEIKCSvt7NoJ/5f03HQ0tWoKS4MisykLfQuQ0BKTHoO4jCItlrr2UF3Gxnr4z3+8hIntokUXMXToAaENXrSoo9AwU5oHDx4gNDQUt0jrmwAAIABJREFUPj4+cHZ2houLC65du4a4uDi4u7uLNmvyR90YLl9GbGy6GOfoxYmT0/MXPjzOV/z/jiZjL70gkwKP8+X/P6jJ8yVx5i0TqC0EWNMC4P79NCGwTJ3qha+/7iwm6pLAQhc6ISFTaAfozRyZVdE5HR1F5xESUOgtPWk96I3fmTNxCA9Pgbm5Pu7fT0diYpa4Z0hAIKFnyZIguLpuAmliyFSBNBpVFUgQIvM0akvdusbCDEZ640mCS3z8UyxYcAEDBuzBmDF/CGErOTkLZCpRWYFMNu7dS0OzZkUMqVwXF3O0aGGjwEeqr7Q2S2lUbTWpi4QT4k7Xs2dPR5DAQsHMTF9BQKyNfKifJtYmSI9Px6EFh/D9gO/x05ifxISa/EHkBQ1VjIvH2zaxFUIOCQI0oSf/EBJa5AMJJXSONCB1nOsgIzFDOM1nJGWUECTIt8S+hT1S7qeIdPLlaFKXfHr5fRKmhHanEELrI39O2tekPekJ6UIrZNu0SPgRfdZRfIZJQHl446HoL2mYos5EgbREhuaGSvsl1a9sW8+4HlwtXEHCAgXakgZFMtOiuC4NuuDk0JMY5j4MBjoGQnvy4ckP8Z9j/xH+KJTm3MNzSMtNg3ddbzQ0a4im1k1BQsrpuNOiXE3/aNIeqSwyWSVTWxJg6EVBVNRzR/uwsDAhpHh4eMDGxgZNmjTBjRs3cP16SQ2bVJ6yrboxXD4PaZ1pbCYTUMlsl87zOC9PqXz7moy98iXzOF/x/4OlPV/yrHmfCdQGAqxpAYQvCWlY1qwJEc7v8+d3kPmGyF9kElakN/Dy8bRPJgf0o2U03377sMJpT8/nb3TJ9Gv37gE4fvwBtm0Lwx9/3BP/yN9911P4mpDm5d8K5F+zcmUI5s07J3w5Ro9uKvq3ePGlf6sJL7wemrTo6ytONqVG1VY+BXkFOLHyBA7MO4DmrzaHz2gfIWAcXqx430ocNNma1zeX+YOoS0++I/QjoYYm+2UNZamreNmmdU1hUd8CMVdihOBgVu/5m/biaTU61kIJ4UzKJwlI8WHx2Pb2NilabOt71hdbTX1avGy8cHHERVkZvRx7gX7FQyOLRljfcz2WdV2GDdc3YOHFhfg75m+Ep4TDzdINf8X8JbKsDV0L+kmB/FymtJwCJ3MnoWF5kPEAqdmpMNc3x5PcJ0LLQvvO5s4ii6btocTkN0aaFjI5pXGWtNgUcnNzce5ckc/Uhx9+CPpJgRzz+/fvLx2q3VKZmozhpBEnsyTSspB/n7LA47wyKjU7rjaP86qer5p9xbj1TEA5gX9vhqy8/moRS87wpKZ+443G+OyzM+jQYQc+/dQHEya0ECYOdesaoX59E1y5koi7d9OEP0l6uuJ3GOiNvK2tMeLjjYSzPP1TpEB+EeRDIAk7ZMZAEzUyF6MfObq/++5RYY5FjuDu7kW+A4aGusIc7dGjTOGgXhXCDA12u3bdEf/AV63qhnr1jFV+66Wi7SEfHHqrRhooiSFtb9xIgo+PHYhxZQVN6iLVeuPGlsLOnvx8SJikf2w0qcnOzhemc7WVT0p0ilg5i3xHhq4aCpq4/xvfX5H8V0h7khCWAEcfR5AQQcKLtbO10EQk302GqY0pku4mCS2FlKYs9wY5xZNzfcajDLGgAC0sIAUDMwO4dHBB2J9hOLX2lPBjMbM1Q/K9ZFDdxITq16Q9kvAjtTk7PVuqRmzJp8fc1lxosGgRACqbAo0HtEox9Tsr67HwacnKKvIpkS/A2tpZ5tMiH69qn5zuTz44iXkd5qGOYR30dOyJlSErkVdQZKIX9zQOYclh0NHSAWlKaEsrhNHqYGGpYUIwcTF3ERqc4MRg/HLrF8xsOxO0mhgtm0zmZPL+MaraIcXTs7Rp00189VWQGDMDA/vjlVcayrQbycnJwjTMysoKnp6e0NXVRV5entC8kMkYLWdcp04dNGrUCEePHhW+L40bNwY57pMJ2fjx42FiYiKqUzeGS226ffsxjh6Nxvvve8PKylCKFlse5wEe52vO/0F1z5fCzc0HTKCWEGCh5Z8LSUIFreLVpk09sXrYl19eEhNpentHvijk9E6O+kOG7BcmTqRRkQ916hhi5Mgmwhdl4MC9wpGeTI1IEPn44zbiLSANMqTFIBMJWqWKNDBkKkGmCmSiRKZbUqAJvq+vPXbtikSvXr8LszNLSwN8801nlavwSHk13dLE3crKQLx5HDx4v1iVjFY/I58baRUyqayKtodM08iv5q+/ogVDDw8bYS5GdVE8Mc7Ofu7/INVb2nbv3kjQ6miSiQfxIS0ZtVVdXfQ2ddgwN7FqGC1EQIILCZ537jwRE6svv/QTAmtN5qOKnb6xPoysjBBxLALrB6+Hvom+8DMhZ3wrx9Id7lWVqUn8T2/9BHsPe2EKRqZT5FNjaGEohPg2b7bBrb9uYcOQDbI01B6KpzRlCWR65uLrIgSzlb1WCvMsI0sj+H/jLwQSn7d8cD/oPq7+dlX8pLLJtG3kupFwbOso6lXXHnLwJ+GH2kw+MiSIyQfysWk7si3unr+LHwb+IBYIIKEpNSYVr3z8CtqOaAsjI818WuTLVbYfnR6N+efng7abb25WSPKm+5tCy0JCTXxmPDrYd8DO/jthpm8mTMgG7hmIkKQQYSI2vsV4vOf1Hqb8PUWsGEarhlEgc7P/tPyPcNxXKLyUA/IDJA3LxIkemDLFS7yEkU8eHh6OU6dOCeFj8eLFMDIyAjngk8Zlx44duHnzJnr16oUePXpg+/btmDJlivhRGaampiLe0PD5vVHaGE55SFYkXz0aa+ilUnElH4/zEGNnRf7v8Dgvf4eX3K9MPuqer5K1cwwTqPkElNvF1Px+lbsH9JZ+/nxfbN/eTziNU0H0z23s2GbCQV8qmGy0JW2KFDd4sBsOHRoknE1p6WLSotA/gObNrYWfCwkJM2e2Fct/kg02mWVdvZoohJqvvuosBAipLJqA0wpm/v6uYqEA+to9/VOmSX5lBVpYYM6c9mLpYVrRizRF9DZ07NjmJaqojPb06+ciuHp51cWpUw+EP8nPP/cVqwwVn0CUaICSiNTUHPE9HfpIHP1oNTBagY2CJnV5e9dDQEA/kFkcaVXIx4UWBHjnnRayN441mY8SZCKKtBDkZE/LCtNqXaQNeCfwHbQf215VlkqJpyWRc5/mirLe+PYNseyvZB7WvF9zvL39bTTwaiBWGiMBYtzP48RSylIaTRtBAkqfz/vAy98LaQ/TEBscK7QaJARRIM3S0JVD0W9+P7HaGMWRmdyQ5UNkK3ypaw+1iXjR8sVS8F/qL9OmSHFeg70w9dBU0FLRj+48Ai3bTAKVfXN7lT41Ut6ybGk1r0ODDmF4k+GQnO5pZTAy+VraZSkMdQ1xLLZoqWPyZzHVL/r+Ey2d3Lpe0TdRjsceF0sdD3YbjJXdVooVxKgNtJIYmZsNdR8qFgHQtF202AU937TQBY018oG0TbRqGAXyZ5GEDxJGvLy8RDwtfUzp+vTpgxUrVqBt27YinrZ0TPHK7g1lYzhlJJ+VI0fuizG5UaMiEzVR4D9/eJwHeJyvOf8HS3u+5O9r3mcCtYmAVqGwVVDepfT0dOUnNIiNj48XHwvTICknYQJMoJYSkF95jCbvjfxezMdaayle7lYZCNC3oei7MfRtFvp2VnlelJShOk7KBJgAE2AC5SRgZqbc35Q1LeUEytmYABNgAkygZhCglRDpo770/Sxabp0Flppx3biVTIAJMAF5AuzTIk+D95kAE2ACTKDWEaAlzel7VxyYABNgAkyg5hJg87Cae+245UyACTABJsAEmAATYAJMoFYRYPOwWnU5uTNMgAkwASbABJgAE2ACTODlIcA+LS/PteaeMgEmwASYABNgAkyACTCBGkmAhZYaedm40UyACTABJsAEmAATYAJM4OUhwELLy3OtuadMgAkwASbABJgAE2ACTKBGEmChpUZeNm40E2ACTIAJMAEmwASYABN4eQiw0FLOa33+/EOYm6/Be+8dR1ZWXjlLqXi2lJRszJhxAj167ERwcGLFC6xgCdWtPRXsTqVnr4l8MlMysXPGTqzosQIxwTGVzqS2FHjv/D18bP4xAt8LBH1Uk0P1JhAWlgIfn+1YtiwYBQWFShvL47xSLKiJ45jynlRNLPOpGq5cKhNgoaWa3gM06Pn771crFEVGPkFAwG0EBSXgyJFoFCr/31vhXlan9lSXiYQ81OrER75dlbH/KPIRrgRcQXRQNG4duYXCqrrJKqOxAEjIWue/rlThITstGydWncCSNkuEoEHpI09HVtu+vX34bZivMccrO19BbEYseu/qLY7H/DkGhShE3NM4NP+puYj79sq3gmRQQhAc1jug2U/NRB75NFQW/er+UBcjD41ETHqRMPpl0JciXjpffPtbxG+ibHXt0fRSnj9/Hubm5iV+ixcvFtciKysLM2bMUDjv5OSE999/H9HR0ZpWozTd33/H4MmTHHTu3ADa2lpK01R1ZHUbN6pTe3icr+q7j8tnAjWPAH9cUsk1oznZyZMPkJaWg9dea6QkRdVHJSdnIzExEw4OpqVW5uFRB//9b3vcupWK4cObVNmXnqtbe0qF8gJO1mY+9T3qo+9/+yLhVgJaD28NrWr+OfGnyU+RnpgOSwdLpXcCndv9yW6E7AqRnb919Ba0dbVh42IDiwYWsviauLPrzi683eJtlU3X1tKGjZEN9LX1kZydjP139+N++n3seW0PLPQt4GDqIPLSuay8LFgYWMBMz0zEGesZqyy3+In9++/C1FQPXbs6qByXDA0N0aNHD1nW5ORkhIQ8vy6yEwB8fHxAa/dTms2bN+P27dvYsGEDGjRoIJ9M7Ksbwx8/zsHZsw/RvXtDuLsrv09KFFoFEdVt3Khu7akC5BUqsjrx0eT5qlBnOTMTqIYEWGgpdlGSkrKwcuVVrFt3HUuXdpGdzcnJx9atYfjuu2AYGuqgS5eS/ygpcWhoEpYuvSy0Hvb2Jpg92weDBrlCV7dIqZWXV4CDB+9h8+aboDdJlKZPHydMmuQJJydz3LnzGOPGHca1a0mibtpu2XJT7Hfv7oANG3rBxEQPs2efwcaNN2Tto50hQ9zg6Fg0uSCTNUpz9+4TfPGFL3799Tb27o1Cq1Z18b//+cLVtWhiFhubgV9+Cce+fVEICUlCw4ZmmDbNC+PGNYeRkS4iIiqnPdQ+aSJBfI4fj0XHjvaYPbudYEnzYE3brNBpFQfq6pKyRUenY+3aUMEmJiYdr77qLPrfqVN98fa1tvJ5HPsYQb8E4dq+a3gQ8gBWDa3QZVoXdBjXAXpGesK8ae/svTi38ZyESmy9h3jD2tFaFvco4hG2jtsKjwEe6DihI878eAY3/7gJXX1dDP9+uBAcqJzEiES0G9MOQT8HCY1Nx4kd0X1GdxhbFU2CSXsTeTISR5ceRcTxCLh0dEGf2X3g2sVVJiSpq4saRW2JuxYn2kfbC1suiH237m4YtWEUTOqYCK0RCSztx7VHn8/6wNzOHMSjoKBAJrBo0p68nDxc3HoRx747Bl1DXTTu0ljGRX4nLjRO9Cv8SDjM7c3Re3ZveA3yEkLSkydxWLmyJx4/jpXPIvadnHwwceIuGBqaw97EXsRZGVrB2sAaVgZW4liKlzLrausiLDUMZ+LOwM7YTopW2JromeCXV39BO7t2uPvkLgbuG4iwlDBcTryMKS2niB9lIG3Kzjs7MdlzMj5v97lCGVK9pbUnM/MZRo48hPffb4UZM7xhY2OkUAYdtGrVCrt375bFBwQEYMKECbJj+Z3//e9/8PPzQ2ZmJj799FMhuFy+fLmE0KJqDJcv6+rVRzh2LAarV/eAqam+7BSP8xX7v0Mg1Y29PM4XvRSt6P9BTZ4v2Y3NO0yglhBg87B/LiTZNP/553306bNLCBSff94OAwa4yC7znj2R+PDDk+K4QQNTHD5c0jSBhJARIw6JCXnr1vVE2vHjjyAwMEJWDtUxefJRYRM8fbq3eAu5Z08Udu68g9zcfOjpacPNzRI+PrYiDwkRJKz06NEQDg5mYiJNb7ppAkBxdI7SqArHjsWiS5dAXLgQL5KQcLJ+/XXk5haIfy67d0di4cKL0NcvEsQyMnIxa9ZpbN9+S6SvzPYcPHgXI0YcBJm0devmgJiYDLz22h4hMMm3v7Q2y6crbV+Tukg7RQLi6tUhsLY2ECxv3EiWCYz0z7c28qEJecjuEPyx8A8hXNBkOycjB3tm7UHQ9iCBle4xExsTuPdwB034SagpLSSEJ2DHuztwZMkRIQQZWRjB2Pr5W/nIU5HYM3MPCgsKxcSdJvok4BTkF4hibx68iU0jNiEpMglu3dzwOOYxvn/te1zfd71Etarq0tbTRl23unDycRJ5qM3UduqDlYMVtLW1kZOeg/sX7wtBxWeUj9hSYtLKyAtjmrQndE8ofv/wd1GXZQNLhB8OL9FW8nOhfpEg1rB1Q3H+5/E/40rgFbGvr28MT8+BaNt2RIlfkyY9oaOjJ9I5mjmKLQkLRnpGMoGEtCJaeG7aRIJKQ9OG2Bq2Fc8K1PvVkMaFyswryEN6brqoQ5M/mrSHxs/Fi/3Ey56uXX8T46sq3xFN6pTSGBsbywSVp0+fStHCL6W0MVxKmJ9fiBMnYtG0qTVatrRR0ALxOF/x/zuajL10LXicr9j/wap6vqTnhLdMoDoSYE0LgIcPn2L+/PNioj5iRBOhHSGth2QFk5aWC1LF2tkZY/36nujQwR5nz8ahb9/nbwjprceWLWFITc0Wb+9ef70R4uMzMWnSX2JS3q+fMywsDBAenoqMjGfo1ctRvIEkbUZ6eq7QxBgY6MDZ2RybN/cWWpjevXcJweSrrzoJrYf8DTRnTjtxKL21Kq51kU+7dm0PvPmmu9CkkNBQ1IZcWFsbYvhwdwwc2EiYoZFd94kTDzBx4hGcPh2HoUPdKq09xJC0PWQusnFjL7Rvb4fLlxOFELNjxy107dpACE5Su0trs5RG1VaTuujt6m+/RQhfoHnzOgjtCvGXroVk414b+ZBA0mZ4G3gO9BSTeS1tLdw5cQe/TPxF+HV4D/WGoZkhXp3zqkBMTuXKtC7y/Elz0axPM3wa/CnqNKqDwvxCULmkjZDCiB9HoGnvpiDNA2lEos5GwTfVVwhOl3+9DANTA4zaOArO7Z0RfTkam0dsxuUdl9G4a2OQECQFVXWRFuWtzW+BBIVVvVcJYWXQV4OE5kjKmxSVhJR7KbBtZgsbVxspWmFL/i7q2kMMr++/LoSeketHwrmDM+6evYs1fdfIysrNzBWanszUTAxbPQwtX2+JtPg0bJ+0XQhjLfq1gJGFJV5//UtZHlU7rpau0NPWg7uluxBSmlk3E8eNLRW1O+Tf0tOxJ/ZE7hF+LGQKpipQ2lNxp3Az+SbM9c1lZmGq0svHa9IeY2M9/Oc/XsLEdtGiixg69IDQBi9a1FFomOXLK8t+TEwMgoKCYGdnB3d3d5FV3RguX35sbLoY5+jFiZPT8xc+PM5X/P+OJmMvvSCTAo/z5f8/WFXPl3RteMsEqiMBFloA3L+fJgSWqVO98NlnPjA3f24uQBctISFTaAfozRyZVZEwo6Pz/O0mpSEBhd7Sk9aD3iaeOROHZ88KRFn376cjMTFLCC0kINDbwCVLgsQbfjJHevvt5vD1LTL/qIqbhAQhMk+jftWtayzMYKQ3niS4REUlYNOmG7h0KUFoGVJTc5CcnAUylTB7/j+9Qk0jk41799LQrFkRQyrMxcUcLVrYQOIj779TWpvVNUSTukiLQiYidD179nQECSwUzMwUr31t5EP9NLE2QXJUMs5vOo/oS9HCpIom1+QPIgSNMl532ya2QsiRBAEtXcXng+okoYQm+6QBqeNcR0zgyWmefEmKCxL/3955gFV1ZX3/b0MwiCIKYhBbxAKGOGAhmGgsk8QYRxQ1Qd7RMZGMvo7RdyzjRB+dqEPMTOwlRc2YOJ8RJ0XHklgSu8aCLQpiEIMawIYCIhbke9Ym5+beyy3nAhcB//t58J6yy9q/fc5xr7PW2kdiS3wDfXH9p+vIuZxjorToaUsNpoV/RJlS1p0CKKuPhSzIuZpjVx4pJ1Yhn9aFyo/0q2o1UwVBFJS0U2mqv2JhOrf3HPLv5cPVw9VivyzJoh3zruWNFnVaQJQFSfLbrE4zg9uYlk+sJaE+oSpO5fu07+Few10F6mvn5Vfy9Pyip/EhDA4YjOAGwSbHbO3olUfqEJdVcbWVe0msmq+9FlgspeXFF180EWnEiBFo06aNOmbvGW5cUKzOiYnXIS9+NLddOc/nvDGl4m3refbyOV+6/w+W1v1VvBFnKRIoWwJUWgAVSyIWliVLjqvg9+nTOxtiQ4yHQ5QV7Q288XHZFpcD+ZNlNP/why0mp9u1+/WNrrh+ffVVH+zYcQmrViXg66/Pqzf+b7zRTsWaiOWlrJLE1yxceBzTpu1XsRzR0a1V/2JjD5WVCA+9HZm0uLiYTjY1oSornwf3H2Dnwp3YOG0j2r7QFh2iOyiryJZY0+tW46Dn16ORhyEexF5+iR2RP7HEyGTf0eRIW+Z1uzdwR51GdXAh/oJSHGp7O6idmVdYBaof5odlX1OQ0hPSseoPq0yyNGrXSO3rjWkJrh+Mg68eNNTRy78X5M88ifVEXMZCvEOw7cI2iKUlvyDfJJsWiH8n/w5u3rmJro93xdyuc+FW/VdrlkkBCzt65ZGiEjcmlhZxOZXnrFixi5O0QHxfX18MHDgQYWFhcHMrlFnq1PMMF4u4uCWJlUXi+ywlPuctUanYxyrzc7607q+KPcKU/lEhUHYz5HJMVILhxUzdv/8T+Otf96Jz58/wl790wOuvB0JMsA0auKFRo8cQH38ZKSlZKp4kO9vUX1zeIvr41EJ6upsKlpf/FCXJG32JIdCUHXFjkImauIvJnwS6v/HGduWOJYHgAQGFsQOurtWVO9qVK7kqQN0Zyow87L788kf1H/iiRd3g7V3L6rdeSiqPxOCI9UQsUBpD+T116io6dGioGJfWJaKnLRnXJ56oq6xeEucjyqT8xyaTmry8fPVWuLLyuZ56Xa2cJbEjAxcNhEzcy+L7K1r8ilhPMhIy4N/BH6JEiPJSr2k9ZYm4lnIN7vXdcTXlqrJSaHkcuTYkKF6C63Ou5KgFBWRhAS3VrF0TzTo3Q8I3Cdi9dLeKY6ntUxvXzl+DtC1MpH098mjKjyZzXnae1oz6lZgeDx8PZVGSRQCkbknyPEBBobJz+/YNFdNy+3amSVnZqVevqSGmpchJGwfEjWxI6yGI/jpaxbU87m66aIgWiP+g4AEiN0ZiX9o+7L60Gy82NbVk2GhC1ym5lz7++DTeffewemauXfsSevRobGLd2LNnDw4ePIiRI0eqmKOEhARVt79/YQyPcUNaIL7xMW3b3jNcy5eUdAPbt6dizJj28PR01Q6rXz7nAT7nK87/g3ruL5MLnDskUAkIUGn5ZRBFqZBVvEJCvNXqYe+8c0hNpOXtncSiSNC7uHVFRm5QLk5iUTFOXl6uiIpqpWJR+vZdrwLpxdVIFJHx40PUW0B5yIgVQ2IpxC1MLDDnzt1UrgrioiSuW1qSCb64jH35ZTJ69fpCuZ3VrVsT//znMxZX4dHKOfIrE3dPz5rqzeOAARvUqmSy+pnE3GirkGn1lVQecU2TuJpt21IVw6Cg+spdTNqS48I4L+/X+AetXVu/69cnq9XRNBcP4SNWMpHVXlvyNnXQoJZq1TBZiEAUF1E8f/zxpppYvfNOuFJYKzIfa+xcarnAzdMNZ787i2UDlsHlMRcVZyLB+J7+tgPurdWp5/gn//MJfIN8leuVuE5JTI1rHVelxIcMDsGZbWewPHK5IY/II8cljyNJXM+ahTVTitnCXguVe5ZbXTdE/DNCKSQd/qcDfjr8E47955j60+oW17aoj6LgH+qv2rUnjwT4i/IjMkuMjChixklibEKjQpFyIAUf9P1ALRAgSlPmhUz0GN8Doa+Gws1NX0yLcb16tp/2fRpB9YNw9PJRq9k7+XbCsLbDsODYAsw8OBMdfDqopZCtFnDwhMQBioVlxIggjBwZrF7CGFeRmZmpliz+/PPPMX36dMOp0NBQyJ+jVjhbz3CpXHRFidWTZ428VDI38vE5D/XsLMn/O3zOGy5jixulycfe/WVRAB4kgQpOwLJfTAXvVEnEl7f006eHYfXq3ipoXOqS/9yGDm2jAvS1usVHW7OmaMcGDGiJzZv7qWBTWbpYrCjyH0DbtvVUnIsoCRMnhqrlP8UHW9yyjh27rJSad999RikQWl0yAZcVzCIiWqiFAuRr9/KfskzySyvJwgJTpnRSSw/Lil5iKZK3oUOHti3SRGnI07t3M8U1OLgBdu++pOJJ/v3vF9UqbeYTiCICWDggsTfyPR35SJz8yWpgsgKbJD1ttW/vjbi43hC3OLGqSIyLLAggPvfaG8eKzMcCMnVIrBASZC/LCktchlgDXlv7GjoN7WStSKkclyWR7966q+rqP6e/WvZXm5i27d0Wf1j9Bzwe/DhkpTFRIIb9e5haSlnLo1cIUVCef+t5BEcEIystCxePXlTWHFGCJIllaeDCgeg9vbdabUyOiZtc5PxIwwpf9uQRmYSXLF+spYj3IgzWFO1Y8IBgjNo8CrJU9JUfr0CWbRaFyretr9WYGq1sSX7l2yqRT0TarEJWHfvTU39CK89WOHn1JJacWFIk/sVmBXZOymIXcn/LQhfyrDFPnp6e+Mc//oEJEyagcePGcHd3R0REBObOnWsIsDcvo2ff0jNcyknMytatP6lncvPmRV3U+JwH+JyvOP8P2ru/9NwrzEMCFY1AlQLlq2BZ7Oxs/UtgmteQnp6uVncxP859EiCBR4eA8cpjMnlvHv5wPtb66BBnT60RkG9DyXdj5Nss8u2s4rwosVY3j5MACZAACZS8n15dAAAgAElEQVQeAfmQsKVES4slKjxGAiRAAiRQaQjISojyUV/5fpYst06FpdIMLTtCAiTwCBFgTMsjNNjsKgmQAAk8igRkSXP53hUTCZAACZBAxSVA97CKO3aUnARIgARIgARIgARIgAQqFQG6h1Wq4WRnSIAESIAESIAESIAESODRIcCYlkdnrNlTEiABEiABEiABEiABEqiQBKi0VMhho9AkQAIkQAIkQAIkQAIk8OgQoNLy6Iw1e0oCJEACJEACJEACJEACFZIAlZYKOWwUmgRIgARIgARIgARIgAQeHQJUWirpWN++fR9jx+6Eh8cS9RceHoezZ29U0t6Wv27Nnj0bY8eOxe3bt50iXH5+PubPn4/AwEAcOHDAKW2YVyrfupg4cQ8WLTqOggLzsxVjn/dFxRgnSkkCJEACJEAC5gSotJgTsbM/e/ZhyF95T25u1TFvXldkZY3Cli0RFsU9cCDNoNRoyo3xb3ntZ1xcHDw8PAx/MnF/8803kZqaarGfD/ugKBXG8ppvi4JTnOTi4gIvLy9UrVo2t3FqajaOHMlAly6Ninycj/dFcUaQZUiABEiABEiABPQSKJvZjl5pykm+Bw8K8N13F7B48XETifLzC5CXd9/kWEXe6dzZVyk1otgcORKFdu3qY9mynoZjkyaFlnn3Dh5Mx4IFx5Cbe89m2+3atcORI0eQlZWF7du3o6CgABMnTsSVK1dslnsYJzt37qzkFFlFZpF92bJlhmOTJk1yWKxq1aph5MiR2LVrFzp27OhwefMC1q5543z796chIMATAQF1jQ+D94UJDqfs6L0vnNI4KyUBEiABEiCBckCASovZIOTk3MPMmQcxY8ZBdOzYUJ3VXEo8PZfivffiMWvWQYOFwtjtSsu3Zk0S9uz5GVFRm9Go0Ufo0eNzg2uWTMbXrj2LQYM2oUmT5QgM/BQzZnyPzMw7qq2ffspC9+6fY/36cyaSJSRcx7PPrsWRI5cNxy9ezMGYMTsM9cTGHrI72TcU1rmhV564uCTExGzHypWnlfzS76FDv0Fy8k2TluzJ3Lx5HZw5k4lhw7YiKSnTpKy1nYYNG2Lw4MFqAn/+/HmVTZSYnTt3om/fvsrKERISgvfff9/griVuW+K+Ze7CZe7WJVadMWPGYMuWLYiKikKjRo3wwgsv4NChQwZxHjx4gPXr16N79+7q/NChQ3Hs2DHDeb0bmkxr1qzBnj17DO316NEDZ8+eVdWYW5nEamPuHiZ5YmJisHLlShOZkpOTLYpi6Zo3z5iVdRfbtqUiLMwXtWrVUKe16533xa+0zO/Th3lf/CoVt0iABEiABEig4hOg0vLLGIqP/tGjlxEZuUEdWb++Lzp08FHbmqtVRkYMhg8PxFtvdTRYI/buHYSWLU3fPH/44UnMmROPCRNCcOHC61i3ri9atKij6kpIyMTOnRcxfXpnnDs3HNLOiRNXsWTJcfXG2s+vNrp2fVwpPRJDoCV5y920qYehrcuXczFhwm7Uq+eK48ej8c03EaqepUtPqnq0ciX9FXl69GiMzZvPmyhEhw5lmMgj7Xz22RmkpGThiy/64MSJaNSpUxNvv30AN24UKmR6ZK5f3w0LF3ZDVFQrDB26BatWJcKYg7X+3L17F+7u7qhRo3BCvWnTJgwfPhyvvvoqrl27pibwMpmfOXMm7twplMdaXebHN27cCCn7zjvvICkpCW3btsXChQuVpUTybt68GePGjcOIESMgSpO5ImRen739Dz/8EHPmzMGECRNw4cIFrFu3Di1atFDFBg0aZLDQaFYbS/V99tlnSElJwRdffIETJ06gTp06ePvtt3Hjxq9xTbauefM6JR7q6tXb6trUzvG+KP/3hTZW/CUBEiABEiCBik6ASgsAeWO8aNEx/PnPuzF5ckdMndoJ7u6Fk9/iDLBMBmNjw9G+vTeqVaui6qpatYqqKiTEG4sWPYe2beupc6LMvPhiU2VduHXrnjrWtasfJN5EYggkyaR/+/YL6NnTHx4eLuqYWGuys+8iJqYd6tatCT8/d8TEBOHrr8/j559zVJ7S+Efk79//CZw6dQ2icEnS3robyyPHe/Twx5gxTyl5RPkQxUMsTtoCAHplFlb9+rXA2rUvYffuSxg58luIhcZaSk9PV0pFWFgYmjZtipycHDXRHzBgAPr3768UmaCgIKVMiDKjWS2s1Wd+vGXLlvjb3/4Gf39/pRhJvaKcXL16tUhbEmfSvn17iCzFTWIlio2NVfWIG5goY47GrYh1RixEdevWRf369ZXVRqw3Wt8dueblet6+PRXBwQ3g6+te3G6p4H3eF2V3XxR7oFiQBEiABEiABMohASotANLSbil3rHHj2uOZZ4oGGTs6br16+Svff2vlrly5jY8/Pq3cx8LC1mDp0hPIzr6H+/cfqCJPPdUAjRvXhlhXJImLVXr6LeWaI/sy4UxMzFSWIB+fWiqP/CNWEbFKpKfnGo6Vxoa4bEn8iyhEEr8gSsilSzkGeay14eXlhoYNH0NKys1iySyK2MSJoeoN//ffp5s0c/LkSYjLl7hH/eY3v1ET+1mzZqlJ+uXLl5GYmIjQ0FDUrFnTUK5NmzaoVasWzpw5YzimZ8PNzQ3ypyVRJGT1Lvmz1paWtzi/vXr1QkBAQHGKWi0jAfviRifWF0mOXPMZGbnYty8Nzz/fBC4uxX9k8L4oHB5n3hdWLwCeIAESIAESIIEKTqB6BZe/VMSXSfnixc9hypT92LHjIiZP7gCxFBQ3iaWgSqFhpUgVYnmYNGkP/vjHdsri4unpirVrk7B6dZIhr1hOnn7aV1kpIiJaqLfcISE+8PevrfKI0iKWh337fsbRo6aB5+IuVqNG8SeWBiGMNmrWrIbevZuqWJ4hQ1oXkccoq8mmWAwkwNvd3UUpLY7ILMqXWGZkMQRZEKBv3+YmdUsw+7/+9S9IPIm4ZXXq1Al+fn4mecpiR1NeSrMtsapUsXYBFbOhwrF4oJQ7qcKRaz4+/jLkmpaFGkqSeF8U0nPmfVGS8WFZEiABEiABEijPBKi0/DI6sirSypW/xYoVpxAZuRHTpnWCuGnJREtLMpEUdymZiIvLjKPzyry8fHz55Y/o06cZoqPb2CzfvXtjfPVVMsTCsHfvzxg7tj1EeZAksQRNmtRW8S0zZoQZjmtyOuNXrD/e3rWwYUMKJJ7lf/832G67Yg2S1dZE2XJEZnGLmz79gFK+xEVMLC7WklgkJG5F4kBkFS1x4fL29kbr1q1x+PBh/O53vzNYWxISEpCbm4tWrVoppUAsJhILo6X79+/j1q1b2q6u3wYNGqjge6lbFBipszwmsTzl5eUpPpp8eq55UR5FkZfrURRiS4n3Rfm7LyyNE4+RAAmQAAmQQEUmULqv5CsyiV+UgVGjgjF37rOIjT2MZct+MOmRq2s15de/dWuqivEQ5UWsB9eu5Znks7YjFhCZ+EngvbhXicVEAtznzy+60pS8CZeYGFkRTCaFbdp4GaoVBeCVVwKwdetP+OCDkyq2RWQRN7JNmwpduAyZAYg7iihb8sZcXNBEKdAT3G5ch1h/Bg8OwNy58bh37wFat65nfFptx8dnYOPGFIMrmCiAvXs3U8qVXpmFTUTEf9UkecGCbjYVFmlU2IhiIrEkEnwuiofEgMixrVu3QoLo7927p9zFVqxYgd69e0NiVFxdXZXyIitvyUpfsnLXqlWr1FLERTpm44AEuMuqYRKoL8sPixIkgfmffPKJjVLOPxUfH6/6Lv0ShcW478aty7jYuubPnbup4qssfZtFq4f3Rfm7L7Sx4S8JkAAJkAAJVBYCVFrMRlKsJ6IsyApYTz5Z1B1GgtLFN3/w4E3w81umlhxOTv51RSaz6kx2RXF4/fUgNGxYC+Hha9ClSxxkiVRL30MRq0q3bn7KqiEB78axK1KpxJisWvUCEhOvIyjoUyXL1Kn7VNC/uQVIFKDRo4Px7ruH4e+/HNOm7YfEKTiaZDU1UVYsySN1SUzN6dPXERq6GgMGbECnTg2Vq51mIdIjsyw0EBf3EqKjW9u15GjyyzLE8s2S1atXG5b/FeVk3rx5yoVM4jmGDBmiliqeMmWKwfIycOBAvPzyy3jllVfQpUsXZYn4+9//rlWr61eUpmHDhuFPf/oTxo8frxSiHTt24Pe//72u8s7KJK5yp0+fVnE9snCAuM9NnjzZ0Hfjdm1d82JVCwz0KvJtFuPyss37ovzdF+ZjxH0SIAESIAESqMgEqhSIg7WVlJ1duHqVldM2D8uKThL4y1R5CPzwwzWlpM2b17WIQiffo5C4nOXLe1p1I6o8JMp3T8TqIwrc8uXLUa9eUYuYXulllbjRo79T7oyDBpXuwgB6ZagI+XhfVIRRoowkQAIkQAIVhUDt2oUx3ObyMqbFnAj3TQiISiuuZDk5dyHfn5GPC7Zq5WmShzuVk4D2bRaxmDGZEuB9YcqDeyRAAiRAAiTgbAJ0D3M24QpevygrI0duR0jI/1Mrqo0fH6LbbauCd/2RF1++KbRpUz80aeLxyLMwB8D7wpwI90mABEiABEjAuQToHuZcvqydBEiABEiABEiABEiABEhAJwFr7mG0tOgEyGwkQAIkQAIkQAIkQAIkQAIPhwCVlofDna2SAAmQAAmQAAmQAAmQAAnoJEClRScoZiMBEiABEiABEiABEiABEng4BKi0PBzubJUESIAESIAESIAESIAESEAnASotOkExGwmQAAmQAAmQAAmQAAmQwMMhQKXl4XAvUau3b9/H2LE74eGxRP2Fh8dBvqnh7JSfX4D5848iMPBTHDiQ5uzmWH85IyDf65k4cQ8WLToO65+kfXhC8754eOzZMgmQAAmQAAk4mwCVFgcJz559GPJX0lSSetzcqkO+Sp+VNQpbtkRYFEWUCk2psfRb3D64uFSDl5crqlatYrFdewdzc+9h2bIf0L3750o++V2+/BRkwumMVBLOmjwnTpzAkCFD4OHhgcDAQMTGxiI3N1c7rX6N83Tv3h3/+c9/cP++aZ/s5cnPz8exY8cwb948hIWFYfbs2SZtOLJjry1H6tLypqZm48iRDHTp0ghVzIa/NDhLOyWph/eFNlL2f0vC2X7tzEECJEACJEACpU+ASosFpg8eFOC77y5g8eLjJmfF0pCXZzoRNcmgc6e06rHVXOfOvkqpEcXmyJEotGtXH8uW9TQcmzQp1FZxi+eqVauCkSOfxK5dA9Gxo+NfSReFZerU/diwIQXvvfcMMjNH4qOPeiI1NQtXr9622GZJDtrjfPBgOhYsOAaRy1q6ePEi/vKXv6B37964fv06vv32W5w9exarVq0yFElOTsa4cePw/PPPIyMjA1OnTsWsWbPw1VdfOZRHMletWhVPPvkkmjVrZijr6IYeeczrtHbNG+fbvz8NAQGeCAioa3wY9jibZLaxU1r12GgCvC9gd7z03Be2GPMcCZAACZAACTiDAJUWM6o5Ofcwc+ZBzJhx0DAx19xOPD2X4r334jFr1kGDFcPYNUtcZnbuvIS+fder8/IV+fffP2GwIuitRybRa9eexaBBm9CkyXLljjVjxvfIzLxjJm3JdzWZ1qxJwp49PyMqajMaNfoIPXp8bnA5i4tLMvRXs9qYu4dJnpiY7Vi58rSyokgdQ4d+g+TkmwYht227gF27LmHmzKfRvr03RAlq0aIO/va3MDRuXFvls8dQMt2//wDr158z4fzXv+7FmTOZym1J65O98WrevI4qM2zYViQlZRrkNN4QpeXmzZvo2LEjqlevDh8fH7zwwgs4ffo0bt++jYKCAmzevBktWrRA//794ebmhm7duuG1117D+vXrkZWVpSuPtFmtWjWlsIiVxdvb21gM3dt65DGvzNI1b54nK+sutm1LRViYL2rVqqFO6+Vsb0z11sP7wvqzRQakLO8L8+uD+yRAAiRAAiTgbAJUWn4hLBOro0cvIzJygzqyfn1fdOjgo7Y1t5OMjBgMHx6It97qaLBY7N07CC1bFr553rQpBcOHb8Grr7bCtWt/xMqVzyMu7qxSgiQeQG89CQmZ2LnzIqZP74xz54ZDZDlx4iqWLDmu3pI646L48MOTmDMnHhMmhODChdexbl1fpVBIW4MGBRj6q1ltLMnw2WdnkJKShS++6IMTJ6JRp05NvP32Ady4cQd5efmqT+HhjQz1WqrDHkMpI8rV5Ml7MXZse9y4MRI7dkQiKKi+UkDkvF7O9eu7YeHCboiKaoWhQ7dg1apEyDgZp6ZNm6J+/frYu3evcvcSl6/ExES0bdtWKSh5eXk4c+YMWrVqBXd3d1W0SpUq6NSpE1JSUpCeng49eYzbLMm2I23ZuubNZZCYKbGGde36uOGUXs72xlRvPbwvrD9bZFDK8r4wXATcIAESIAESIIEyIkClBVCWkEWLjuHPf96NyZM7YurUTnB3L3ybrHcc5G31unXnMGBAS/Tv/wRq1KiKoCAvNbGWSZsjgfIhId5YtOg5tG1bz2CNePHFpmpSfuuWdVcmvbJayicT2NjYcIMFRPrvaNxKjx7+GDPmKdStWxOiEIgyIBMp6bu41UlMhK/vY0qpsCSDXoa5ufdx714+RDmQv9q1XVRbffs2LxJrYakd42PSx379WmDt2pewe/cljBz5LS5ezDFkadiwId5++2189tln6NOnDyZMmKCsJ9HR0SqPWFvEGtO4cWMcOHAA7du3V/EsdevWxYMHD5RLmZ48hgZLuKG3LbFu6L3m5drYvj0VwcEN4OtbqJjpFVPvmOqpj/eF7WdLWd4XesaLeUiABEiABEigNAlQaQGQlnZLuRuNG9cezzxTNMhYD/DLl3ORmHgdoaHeqFmzmqFImzb1lDuNuC45kq5cuY2PPz6t3LXCwtZg6dITyM6+p1xAHKlHb95evfxVvILe/HryeXm5oWHDx5CS8quLmK1yehn26NEY48eH4o03tmHIkM3KlU54lST5+blj4sRQZU34/vt0Q1UXLlzAnDlzVCC+xKpIAP7u3buxb98+5fZlyFjBNhy55jMycrFvXxqef74JXFwce2ToHVO9+HhfWH+2lOV9oXe8mI8ESIAESIAESouAYzOQ0mq1nNUjsQ2LFz+HTz9NxIQJu50SFO5Il8U60a/ff1G9ehVlcdm3b7By23KkDkfzisXBfEUoR+swzy/xFRLg7e7uAlfX6vD3r62sGPKWvyRJlMKYmCAcPx6tLDuHD2cgPHwN3n33sCF+yJH6xSVMXMOio79W7n8RES1U8Tt37mDhwoXo0KEDxLISHh6O999/H+PHj1cre6WmpioXMT8/P1y5cgWdO3fG0aNHERkZiRs3bqig+nr16unK44i8tvJKTI09eaS8I9d8fPxlZXWTxRweZuJ9YZt+Wd0XtqXgWRIgARIgARJwDgEqLb9wlVWRVq78rZrMRUZuVKuHyYTbOIkrkgSPy3FxmTFO3t610Lp1PRw+fNkkLiIh4bpanapVK09Ddlv1SOzHl1/+iD59miE6ug3q1XMtdWXCIIiTNxITM5VbmCgrrq7V0LWrn/q+i3FwvrEIjjCUchILIatBzZ7dBYsXd8e8eUfxww/XDFXa4qxlEpc1cQkT1zBxERNXMc0t7tatW2qlMC8vL+WGJmWkzqeeekpZXNLS0uDq6qriWX744QfDMsiirB0/fhz+/v4qoF5PHk0evb/S9ieffKLkMy7jSFt6rnlR6HbsuIju3Rura9G4LW3bFmdHxtRWPbwv9D1bZEycfV9o485fEiABEiABEihLAlRajGjLf/ajRgVj7txnERt7WH1PxOi0mniLX//Wrak4deqaUl4k/uHatTwVA/O73zXH1q0/YePGFNy79wAyaV+x4hR6925mCNaX+mQCb60eiYURRUUC7y9dylGWg82bz2P+/GPGohi2xQVLFCl5Gy6rB8kk3DyY3JDZyRvx8Rmq72JJsdT3nj0b49lnH8eUKfvUogeyxK0oMGLh+OqrZF0MpczChcdUHefPZ6kxkPaOH7+igvF9fGoZemmLs2QSxhER/1UT8gULukFcxIxTnTp11Epga9asUcH3ooxIzMi6detUcL4E6ctEu1evXkhKSlKxLHJ+//79WLlyJSIiIiCxLXryGLdrb/vu3btYsGABRo8ejRkzZqgYG62Mo23Zu+bPnbupFE1L32bR2rTFWWKjeF9UrvtCG3f+kgAJkAAJkEBZEqDSYkZbXKRkOV5ZAevJJ4u6w0iQvcR/DB68CX5+yzBmzA4kJxd+jV6Uk3nzuuFf/zoNL6/3VbzFCy80wZQpHU3iXKRJa/WIAvL660Fo2LCWcnnq0iUOYq2x9l0VcfMZPTpYuUb5+y/HtGn7ITEIDyP5+dXG6dMS17MaAwZsQKdODTF5cgdD32Wp3BkzwpQVSRY9kCWJR4zYhueea6ziJURmewyFz7BhbVX8zf/93y41BtKeKDCibIpVxzhZ4yx5PDxcEBf3EqKjWxtkNC4rSxDHxMTg5ZdfxqhRoyBKTOvWrSFuYeI2JkH6kmTlsLlz5+Kbb75RSyJPmTIFb775Jvr162eoTk+euLg49QFLWVZ5xYoV6lsv8kFLcUuTb8NoycXFRS3BLO3LUsyPPfaYdkr96mnLuICta/7QoQwEBnoV+TaLcXnZtsXZ3pga12WtHt4Xtp8tZXlfGI8Xt0mABEiABEigrAhUKZDXx1ZSdna2lTP2D8tSr9qkzn5u5qjoBOQ7LatXJ2H58p5W3Ygqeh8fNfnl2yyjR3+nlExZ9prJcQK8LxxnxhIkQAIkQAKPNoHatU1fQGs0aGnRSPCXBEjAhID2bRaxmDGRAAmQAAmQAAmQwMMkUP1hNs62SYAEyi8B+S7Kpk2/uriVX0kpGQmQAAmQAAmQQGUnQPewyj7C7B8JkAAJkAAJkAAJkAAJVBACdA+rIANFMUmABEiABEiABEiABEiABEwJMKbFlAf3SIAESIAESIAESIAESIAEyhkBKi3lbEAoDgmQAAmQAAmQAAmQAAmQgCkBKi2mPLhHAiRAAiRAAiRAAiRAAiRQzghQaSlnA0JxSIAESIAESIAESIAESIAETAlUKqXlzp18TJy4B4sWHYf1T2aaAihve7dv38fYsTvh4bFE/YWHx0G+l1FRUn5+AebPP4rAwE9x4ECaQeyK3i9DR7hBAiRAAiRAAiRAAiRQ5gQqldKSmpqNI0cy0KVLI1SpYspy9uzDkL/yntzcqmPevK7IyhqFLVsiLIprrgA0abIcQ4d+g127LuHBgwKLZewdLE0+Li7V4OXliqpVfx0EPf2yJyPPkwAJkAAJkAAJkAAJPJoEKozSIpPx7767gMWLj1sdqf370xAQ4ImAgLomeeTtf17efZNjlWFn+PBAZGTEICHh9+jduxnefHMHliw5AemvI6k0+VSrVgUjRz6JXbsGomNHx7+kfvBgOhYsOIbc3HuOdIF5SYAESIAESIAESIAEKjGBCqG05OTcw8yZBzFjxkGrE+GsrLvYti0VYWG+qFWrhhoyzSLh6bkU770Xj1mzDlp0u9LyrVmThD17fkZU1GY0avQRevT43OCaJZPotWvPYtCgTRDLhrg/zZjxPTIz76i2fvopC927f47168+ZXC4JCdfx7LNrceTIZcPxixdzMGbMDkM9sbGHSjRJl/4OGhSAN99sj5UrTyMpKVNXW1q/7fGx13dpLC4uycBWc20zdg8zCGRno3nzOjhzJhPDhm016YedYjxNAiRAAiRAAiRAAiRQiQmUa6VF4lKOHr2MyMgNagjWr++LDh18LA6HxH1cvXobXbs+bjivuSSJNUKsEm+91VG5XYnr1d69g9CypalF5sMPT2LOnHhMmBCCCxdex7p1fdGiRR1VX0JCJnbuvIjp0zvj3LnhEFlOnLiKJUuOK8uGn19t1bYoPRJboyWx/jRt6mFo6/LlXEyYsBv16rni+PFofPNNhKpn6dKTDltItDbkV9zhwsMbQVyzTp++rk7Za0svH3t9l8ZEaRKu8nfkSBTatatvLJ7u7fr13bBwYTdERbXC0KFbsGpVoglP3RUxIwmQAAmQAAmQAAmQQKUhUG6VFrECLFp0DH/+825MntwRU6d2grt7oQXFnL4oN9u3pyI4uAF8fd3NT+vel3piY8PRvr03xM1J2tPiMkJCvLFo0XNo27aeOifKzIsvNlVWgVu37qljXbv6qeBzia2RdOPGHWzffgE9e/rDw8NFHRNrTXb2XcTEtEPdujXh5+eOmJggfP31efz8c45uWS1llDgSb+9a+PHHwsD90mrLXt8tyVKSY8K8X78WWLv2JezefQkjR34LsU4xkQAJkAAJkAAJkAAJPJoEqpfXbqel3VKuVuPGtcczzxQNrDeWOyMjF/v2pWHs2PZwcSm+Htarl7+KiTGu23j7ypXb2LAhBVu3/oSUlCzcv/8AYmGRX0lPPdUAjRvXhlhXxIqTnHwT6em3lMuanBdFLDExU1mLfHxqGaqWOsQ6k56eq8obThRzo3r1qqXelr2+F1NUm8VEoZs4MRTjxu3E99+nw8/vCZv5eZIESIAESIAESIAESKByEii3SovENixe/BymTNmPHTsuYvLkDhDXIUspPv6ysogU1yVJq1Pe8JuvOqadE7evSZP24I9/bKcsLp6erli7NgmrVydpWZTl5OmnfVVcTEREC2X9CQnxgb9/bZVHlBaxGOzb9zOOHr1iKCcb4i5Wo0bxFS6p49q1PIhLmLijlWZbevpu0plS2BElTixFsvDCpEmh6Nu3eSnUyipIgARIgARIgARIgAQqIoFyq7QITFkJbOXK32LFilOIjNyIadM6QVywNJctySOTW1FqundvrCb+lgahSpUqyn1LViATFzBriomlsnIsLy8fX375I/r0aYbo6DY2y4scX32VrCwDe/f+rKw/NWtWU1VLDEmTJrWVFWbGjDBox62168hx6Ze0d/duvnJhc6QtW3wc6bsj8ocRAD8AAAQ2SURBVNrKK+5106cfUEqcuIiJxYWJBEiABEiABEiABEjg0SVQslf7ZcBNJt+jRgVj7txnERt7GMuW/WDS6rlzN1UciaVvs2gZXV2rqXiXrVtTcerUNfUtE7F4iGVCTxILiFhCJPD+0qUcZcXYvPk85s8/VqS4WIgkJkZWBBNloE0bL0Me6csrrwQo97IPPjipYltEkRI3sk2bzhcJxPfyclPKlliSxAVNJvPGQf5axbK6l6zeJR91HDEiCK1b14Mjbdni40jfNXns/drqlzCOiPivUkIXLOhGhcUeTJ4nARIgARIgARIggUeAQLlXWmQMxDIiisAXX/TBk0+arkp16FAGAgO9inybxXzs+vd/AhKzMnjwJvj5LVNLDicn6/vSvATlv/56EBo2rIXw8DXo0iUOspSxuC2ZJ7GedOvmB5FLAvCNY1ckb+fOvli16gUkJl5HUNCnSpapU/epoH9zC5AoQKNHB+Pddw/D3385pk3bD4nf0ZJYoHx8PkSbNp9g06YUzJ/fTcmp1eNIW9b4ONJ3TS57v7b6JQsWxMW9hOjo1qVqibInE8+TAAmQAAmQAAmQAAmUXwJVCgrEschyys4uXAXL8lnbR9PT09GwoeMfF7Rdq+lZ+TbL6NHfKbctWXKXiQRIgARIgARIgARIgARIoOISqF27MBbcvAcVwtJiLrS2r32bpVMn5ypHWnv8JQESIAESIAESIAESIAESKHsCFdrSUva42CIJkAAJkAAJkAAJkAAJkICzCFRKS4uzYLFeEiABEiABEiABEiABEiCB8kOgQruHlR+MlIQESIAESIAESIAESIAESMBZBKi0OIss6yUBEiABEiABEiABEiABEigVAlRaSgUjKyEBEiABEiABEiABEiABEnAWASotziLLekmABEiABEiABEiABEiABEqFAJWWUsHISkiABEiABEiABEiABEiABJxFgEqLs8iyXhIgARIgARIgARIgARIggVIhYPM7LaXSAishARIgARIgARIgARIgARIggRIQoKWlBPBYlARIgARIgARIgARIgARIwPkEqLQ4nzFbIAESIAESIAESIAESIAESKAEBKi0lgMeiJEACJEACJEACJEACJEACzidApcX5jNkCCZAACZAACZAACZAACZBACQhQaSkBPBYlARIgARIgARIgARIgARJwPgEqLc5nzBZIgARIgARIgARIgARIgARKQIBKSwngsSgJkAAJkAAJkAAJkAAJkIDzCVBpcT5jtkACJEACJEACJEACJEACJFACAlRaSgCPRUmABEiABEiABEiABEiABJxPgEqL8xmzBRIgARIgARIgARIgARIggRIQoNJSAngsSgIkQAIkQAIkQAIkQAIk4HwCVFqcz5gtkAAJkAAJkAAJkAAJkAAJlIAAlZYSwGNREiABEiABEiABEiABEiAB5xP4/0SOh4AnHqD1AAAAAElFTkSuQmCC;" vertex="1" parent="1">
          <mxGeometry x="513" y="10" width="673" height="177" as="geometry"/>
        </mxCell>
        <mxCell id="6VEUIB0EuY8hzefAT8qt-24" value="" style="shape=image;verticalLabelPosition=bottom;labelBackgroundColor=#ffffff;verticalAlign=top;aspect=fixed;imageAspect=0;image=data:image/png,iVBORw0KGgoAAAANSUhEUgAAA18AAAB5CAYAAADGW5vfAAAgAElEQVR4Ae2dzW7jRvruHx2cS+ikb0Ay0H08N0AiJ0B2cm+MYOCtd9QAWcgb7QwkDfROG2kRTMs7bY1J0JuWdsH0BPINjP9uwOQN5CT3UAcvWcUqUvyU5ZYsPwK6RbKq3o9fFSW+eqvKHaWUAl8kQAIkQAIkQAIkQAIkQAIkQAKPSuB/Pap0CicBEiABEiABEiABEiABEiABEogJMPjiQCABEiABEiABEiABEiABEiCBL0Bgo+BrOQA6HftvsMxaKuX+NHut0dnSymzSfiA2+I0kP49KEfC+A/y6BP6aAm87wO/Rl3f91w7wfpP+rzHV+CR+vR0UV3brvB8Avw8SHsW1t3811l9i24O17Un/PtgPCiABEiABEiABEiCBZ0qgMvhaTgHfBzKxVQS8uwVCBchqMfk362fp9WfAapi91uisn8gLJ41qY6aAoFlVW8t/rCdjq+JBR1uy78VRYsWL7oOs2ajx9wr4xyb9X6PtxRD4UQFnJZ3+eQD8fAF8Fyb1/n4K/HZVI3TLxX/ebVlgibii/p36wOARgt4SE3iZBEiABEiABEiABEigJYHC4CtaAgMfuD8CVivAxFZxxqsH3NwAPZP5cjNPdZmrKJFrsmYSZ7RKzOTa5zNulb5H0yStdnNl02tiiBtZxtGm49jULQQQp9o6wDQCpjr9lwmWloCv28t1U0fqy0vAmnLR7T4p19gXTX10Op3Cf76R3wW+BvBVD0APeJkDIlkZyYzFmSPJTg2Av5w6krEyWSUJZOJj32bP6srdrFMmM6UzNkavZOaEuzmXd5Otq7LPMXXtUHRfXyWB1zc64HzRB77zslUlE2b0iv+fddf87hf4rnl8hs0kil9pXYeNaBE+YgOurA6XQym/ZbZf4mxljo/YgJr+Ha6A0VFyj+WHbpYCz0iABEiABEiABEiABHZCQHY7TF+hUpNAqWCSXlk/CJXyvPXL7pVwopRXIENkh5mKSgWBeyE5LmsfeEotHAGLQCnU2LIm3StQmFYKswYGUGqRFiYHRmmwSOqG+l1KBYwxMBRQUGriGJx3VtrmYVfal7Ol4PQ/nlJ3+vovnlJ/FtQxl6TuP3P9dBco9ROSfyLnz4lSPznI6spFdlzHaePqW5NVYWORfWXyYzsrZEm7X8SvwDIxvhhea3YvLIdUL5T6jx4TRTrXZBjn9bvRKYzzfMU+tz/iujmfmvbvQu5Bud+c4ZczhackQAIkQAIkQAIkQAJfmIDNfEWALxmTETB7hCljkuKSrECaMZMEUQ+4usomn0oj0CVwewb0nWl0/RGQS2yUNm9UEH0Ezk3mqwPclrSazJO5lmJLtx9nJCCZKzgGdrvApTM/TsrFWZP2k/feCXDVbJ5ao8wXgG9WwCtt9vcr4IXjwl+SYTEZng7w241TmDs8U4mceKrfLFcontaUr7cAvrlMskJxFicCPl0Bf7u0Nraxr0h+5bUl8F+xe2b1vZoBfwPwOZfgrJQTAN/oVHA89e8G+LOyQXFhEb/vF8AfF4DL57u5tVckVfWvq6k/BFYj4LyXJGrdMh6TAAmQAAmQAAmQAAnshoANvrrAKgQwzs6G25pZXeDYs+vEzHoxeTfTGremayNBS6B3DVyG1sizLYZ23SPAm1jZKYCCyKbA/u5wBfmTbEX/VkMnIi1oG1+KgH+dAF9fJuuhZO1Ufkpe2jSwAVx6zT2oK3frusd6GuCnKfDXR+APD/i/pvPb2OfKdI9v7DRC9/LeHZfx03yuZWrjOfCHBHoNurbIv3gG7RiYh0CT4VEkg9dIgARIgARIgARIgAS2S8AGXyK3Cwxnj7du5PR4w10QxbY+cHwNLJ1FYssxUJG8KSF1axeaxWuy9AYc0T3gHQM9/bQrT6/XLaR3JV14bWVHsjOJu9uDdqB2MU6JfSXeNL4cAn+Y9WB6DdP/tHCvsZ6aipL9kuyObIzx8szJ6jzQPsnQyUYcv/XsGjXJtsr6rHjnxX6S5ZLAxqxzk3Vtkg17ZQJA13Zp+8690Oz4q9dJvViHq79Z8zQ7KFnJ70YNGznVMus1Z4AkYPkiARIgARIgARIgARLYDwIdmeZYZorEH+/ugLk8xAGQ3dQu8g/sAaB08kb2o3DDDSN34WS3ZNOOE1PJS+IdI7+2vWy4cQ5caRuCBQCZuScZtZXRVvPuGuAF1jlp5joYTIDX18AFgHAFdGU3kZN14a5zsouEf5JEhCL7TKqPnNRDzgHPA44vs9tFVtm3rr3VFQk24g0hALycAF9fA/8VlgHwo/ShbPLguCh1MrsW1pXrTSckoDEv2Xkwn72RjSfiKYB66qKpW2efaWfqm3dXh2y8IYGdeb0MgL+bqYYSDI3tDogvPeDbOfDKCVB+9TUTDzg7A65FlnssgoXXCHjfSwJaKf/BmeKZyhDOrv4G/ES8tP9/Zzn2xqGKdxm+d2ePNG24Qi+LSIAESIAESIAESIAEmhGoDL6aiWCtUgLyNIy5E3yV1mQBCcQETPBo1oQRCwmQAAmQAAmQAAmQwOEQYPC17b6UreRNdlCyZ4+ye8m2jaa8XRNYy+rlsmm7to/6SYAESIAESIAESIAEHk6AwdfDGVICCZAACZAACZAACZAACZAACdQSyG64UVudFUiABEiABEiABEiABEiABEiABDYhwOBrE2psQwIkQAIkQAIkQAIkQAIkQAItCTD4agmM1UmABEiABEiABEiABEiABEhgEwIMvjahxjYkQAIkQAIkQAIkQAIkQAIk0JIAg6+WwFidBEiABEiABEiABEiABEiABDYhwOBrE2psQwIkQAIkQAIkQAIkQAIkQAItCTD4agnsSVePgPcd4NclIH/M920H+D3KemSuS9n7AfD7IKmfrbW7s9i+QbF+1/bPxVXiq/I3td5PKypUFJXqXyY8hVv+n/Bu+hLepv3vS+C9D/zlNC7V79SpO3yI/5WyG4yvyvYsJAESIAESIAESIIEDJ/Cg4Gs5BXwfaPFseeA4AfglkcGeef7iKDHoRdca9nkA/HwBfBcCPyrg76fAb1e2fB+O/rwrt+LFEPjOA15OgFfl1fC9Av4xrKhQUVSlX5qdKeAsABAkDP9WIStfJPx/uwV+UEnbV/fAH7lKdfpz1QtPH+J/ocCCi0Xja+oDgw2D3gIVvEQCJEACJEACJEACT47ARsFXtAQGPnB/BKxWQB+APFh1OsBUArJOctzxgamTWVkOkuv+FIgDN6mXC96muo7IKgrsjAwpl7ZiR6ojSs7jMmk/ABz1cedk5A8SHW6v1ZW7dTPH0TRx7uZKO68hmMjUlIvRxigDTYDE0MQZF0DOAQGfwu1knmSjqY9Op1P4zzeAusDXAL7qAegBLx0HJKNyfZUEXt/ogOxFPwlmnGpxJsxkZiQz9ln7kmadJFvm6+yNv55ZczM7Ro7JvokMycyZ6yLfzfpIxkZsxJWt87ZFrJvaKDqK2kXAr8Z2Y4dT76H6haPrv8tPyv66BXAMvNDAJZj8cWXP6/RLecxO+sVk0Jw+qPI/LavqvyI+WmfchxXjS1waroDRkb5nzX2hfeUbCZAACZAACZAACTwLAqrNK1RqEigVTIobTTylvECpMLTlcm1hT+MTwKkX2vpSd+K0VaFSgafkLX4tRLcrTMph24htpm7cQMoD3VgpFU6U8ia2TrhQCl7zcluz4kgAlL3EgbyDbn0PCdzUiTABZeS5zsg1caCsM0yb3Pt/PKXu9LVfPKX+1Md/TpT6yTnPNYtPf4FSPwW2zV2g1E+w8sz5f3Qf5WWK7oyORdL+F7dPHcVS/5+5sRbrqEBc1MYRGR+WyRD/XH1xvRyTsraujrI6dfzkRhGe8u+fgVKGYxPZpk6sW8uQfo77IMerzD7T1ujN9F+o1D9dPqFSsT9O/4sNZePL2GfeF3Iv5j4rTBnfSYAESIAESIAESOBQCTTPfEWALxmTETCrmLJ1NgK6zlS2N2fAh9yv3N4EWM10va5+j4DrY2DotEUXOD0GPursyodbYCZpNvPqAjOl20j7K6Bnsm7y3gOuruy0yO4QOL62dc7fAYu5EQbUlduaGx71R8D12DZejgEBlr48YDSE+J28usDZbeKAZM7EGZPWk/feCXCVzMNrlPkC8M3KTsn73smqGI2l70vgvzKtbmYzMa9mgEyr++z2bwB8o/sonnp2A/wpQiPgf26A7+a2vaRMpX2ciZPMj17jZDJfv92UWvMoBV95wB8XSfZI1lp9fg380IZRlVVN+PWBH0PgO5m2eAv8dgK8za35qlLhlsn0R5l6GWfPZm5JzXFJ//31EfjDA/5u7v0u8P1iXVbT8dUfAqsRcN5zMtfr4niFBEiABEiABEiABA6KQPPgqwusQgDjzGy3Lw7DzNhbU9wFjj3Jqa3/c+O12UqXh8D8DDg5z0qqK8/WbnvWBS5ljqZ4EQHvZC5WGmlVC+seARK1rjmYPFl3hysopQr/rZrquLHTCKuN2V6prD+KpzlGwL9OgK8vk/VOsuZM1m99yZcEDj8sgO8mwNfHwH8vgJ83DH42trsLfDMD/rECflwALzfpk8AG2Bvb8cgN42nHY2AeNr8FHtkkiicBEiABEiABEiCBRyfQPPgSU7rAcFa9bkMSO5ETIX28Bk7d6KfMJZ3kMcuT4moRINmuNzo+kSzYubNgX/TImq+BzrxIuSyfKnvFC/5NlkZkSjxzbGvXlduaVUe3cVwV14jXbzmLhuSiyX5N81kvKbwBxlPbXgI0SQfG/PpJ2m5qHKiyoX2ZZEhko4jfes46rShZvxXvDKizVNfOOixZVyTZsFcN+/f/eMBv4+w6LlkfFssPk80l0izYNMmU5T356nVyJV4L5tqXr6jP47VPuS4orKp36vvcA74ZAt/PgB8mSZfEmTvdqK3+VFcDfrJmy90Z8S+94Ya7KcrG+lNDNjt48SYJBP9l7i9Z/3XSXlZmvajJfrcXwxYkQAIkQAIkQAIk8CQJ/O9NrO72k+l/8a/XH4C5PERpQWenwPgcuJIpY14yrc88mw868V4Jcc3ORdIgWNiphLIgP45X9A57ngdcrqzs/gy41/tRxK09YHIJDLUCKUeuXIIr1z58ADrmoVHbp01P3urKM5ULTi6Pk3mNUuQFQJif86WzX2KDMtSMHA84PQLOO3EcFrcX481rNgcG59YBAXR8aQGaehu+yzTCH14DP/eA37SMl4GdavZ9CHw1Bn7uJIUvPeAsTLIssmFDvBkGgLcAfhwB7zXnaz+ZvieZJekf016kuPIl+LvWumXHwq+9JPv09g74UWOQIPFvvpXhthcb4qmKN8BbPb5iS2Uan35JgCMBo7ze5jYYkWsSfBrfZfzKzo/uzolV+mOhS8vh/evsropV/OK2MgUTyaYj8S6HbfU7usU3YZjf1bHM/yb9948Q+PXcspX+l98Lmr7kx427M0Cyy3yRAAmQAAmQAAmQwHMk0JHFbNtyXB6uMOc0olqesmXj/WgdlGzvOHeizVpBrEACuyMgAdvP11tcF7c7V6iZBEiABEiABEiABL4Iga0FXxJ4XZhfwWXtFX/dXu9AN/UnaZXQCbRkC/mUn+xIYnY2WBfDKySwEwIyNbPn/O0xyXzOgVf5BO5OjKNSEiABEiABEiABEth/AlsLvvbfVVpIAiRAAiRAAiRAAiRAAiRAArsj0G7Djd3ZSc0kQAIkQAIkQAIkQAIkQAIk8KQJMPh60t1H40mABEiABEiABEiABEiABJ4KgVbB16dPn3bq167179R5KicBEiABEiABEiABEiABEnjSBLjm60l3H40nARIgARIgARIgARIgARJ4KgSY+XoqPUU7SYAESIAESIAESIAESIAEnjQBZr6edPfReBIgARIgARIgARIgARIggadCgJmvp9JTtPPxCcjfseoAvy4B+QPCbzvA79G62s8D4O1g/Toati9oyUskQAIkQAIkQAIkQALPgECr4Ovbb7/dKZK2+pdTwPeB5U6tbqdc/lj1U7K3nXcNavtFUU2Ddluu8uIoEfhiwz8gXNRe+nYw3bKhFEcCJEACJEACJEACJPBkCLQKvna922BT/dESGPjA/RGwWgF9pzuWA6DT0f/kYdgHpk52Y+qUu4FbNE3aSGzgO+3zgVKlfG2X0Z95EI8SuRc3wImR3wEGeQWOL+uHUeJQqsAHfOdpX8Ckxotwpyy+LjBcAANINid9xdGsMU7q5owb6DIBauS4wVRVewP45srpoE4uEs355/omRlboj6Y+Op1O4T/fDIAu8DWAr3oAesDL1PGGBzXthytgdKTHXA5dQw2sRgIkQAIkQAIkQAIk8IQJtAq+2maets2lVr9+5h/fA7MVMHSjLgASGH04BZTS/+YAbqyVkpnAyJav5sAHP4k/ukMgnAA3t8BlmNRZHAPvnPilTr5EgaO5lX965wRXXWClgIkHLIx9CpjlfLDWFhxNz4HXl46C42yl8YdEiQEQRwLaAVHu3QB3r4FQG7AaAedOJqr/Bpgb41bA3Uk2OJopYBEAF+fA3WkiZ35qA7iq9gJY7PICa7+cu/7758BoZcvnR9ngskJ/d7iCUqrw32po01tfeUCc7ZJAygO+yhKsPatr3+0nY/PoHpC4NHKD21rprEACJEACJEACJEACJPCUCbQKvppmnh4LSKV+yRxJxmIEzIbFFny4zQUzXUCe1+Nn7wi4PtbHpnkXOD0GPjoPyMEl0NfP6v1TUzF5r5QvVSJgfG4TO+9us+0ffDa8BK5PHAUA5hqGZJauclml3glwdeeo9YDREEhjkS5wdmsDrOgjcG4yXx2gzP7JPAEtciTaMPKatncsSg/F/uNLK0sKRPbxtQ3uTOUC/Y0yXwC+WQGvtJzvV8ALI7Phe9P2/SEQx7a9bOa1oRpWIwESIAESIAESIAESeIIEWgVftZmnRwZQqV8yRyGAcXY2Xd4kJ47KF23lvEr+oJdNTM3PtqLSEdK3ma0wBET+uc5sdY8Ab2KzRib7pWZO+6rDJdC7tmk/aX/mVTXIlT20fU5cy9Omma+WYjeuHs/AHAPzMBfwbyyRDUmABEiABEiABEiABPadQKvgqzLz9AU8rdXfBYaz8nU1ksUysYiYK1O+ZM1XvK5KJ3nM8p/YnQiQbNYbk7mp8bFSfgTcesAbyc6J7iUwvi4WeK8jOEn2yFKsqoAuIyFepKZrd7uAbBpxrHeOkPl7kiXKr9PKCLgBxlNHoU4HytS/6B7wjoGehiHRw7UzZzMjp+Ckcftbqz9eN6anPcq0xNt3tkxUCMTbs2w2rED1Pl3KrEecAdJNfJEACZAACZAACZAACTwTAuqAX4uJUl6gVOj4OAnSlI+Cp9Rk4RQqpdxyz1PKFIcT2y6Qiwt77k2sDLd9Xr4rQ+wS+yQVNXEMDBdKeWZVmuh3yqyWkiMRGniOYTnnhUSm3FMqdkbLix12DFiD58gOJkpN5NzTgB0gbn7NABQVcX3t3Fp7bcPC6aC8/jX7HfBuh5TpL8HW9vJdoNRPQdtWifviNl8kQAIkQAIkQAIkQALPk0CrP7IsmafKqX+PHLDuWv8ju7d78ZI5m6+eVCZpF9Dk73xJ0vLHpjM2d2EkdZIACZAACZAACZAACewdgVbTDncZeAm5Xevfu97bpkEyv/HmBuh1sjsIblMHZZEACZAACZAACZAACZDAMybAzNcz7ny6TgIkQAIkQAIkQAIkQAIk8OUItAq+vpxZ1EQCJEACJEACJEACJEACJEACh0Wg1bTD2t0GH5nNrvU/snsUTwIkQAIkQAIkQAIkQAIkcMAEmPk64M6layRAAiRAAiRAAiRAAiRAAvtDgJmv/ekLWkICJEACJEACJEACJEACJHDABJj5OuDOpWskQAIkQAIkQAIkQAIkQAL7Q4CZr/3pC1pCAiRAAiRAAiRAAiRAAgdNIJo+779q1Cr42vXf2dq1/oO+Exo7t8Sg04E/jRq3OPyKEaZ+B51O7p8/wLYwRVM/ke9PUU1+1/2za/37ONqKxoePwbK6J4s8icfBYFlU1PBaef+kY0zG8YY6Hm5fQzc2qFbtX1EfddCpvd82MOSAmzzN/i/q+8O8P9Ohtxzo76sBHvJpksrTB/X9X/75k5e1yfku9dvPl+0ybcNhl/63sVPqji+A+bBtqwOqr1q8/v3vf7eovf2qu9af92gxUcrzlFrkC57o+cRTKpg8UeP3wOxFAIXAjoZw4il4ExVuybZty9uSWRTTiMBCBYBKh8ciUB6gvEm70ZEfY41Ut6z0EB0PadvSzI2r19lYV76x4mfQ8CmwK7bxedyfmSG4CBQQbPX5pZhtRuujnuxWf6gmXvvP9G0C2a3/WU+qno9DeXY+sGfNts/PzHxtEEhHS2DgA/dHwGoF9B0Z0wHQ6ST//AHg+04hgEy5j/RXJ0nBSjvzg/NSy/Gntr17bSkpW9HjyJCapk5sg5/YmWZfouTctc/97X24AkZHuk3Bz2H2l531X8bTssHUZoHymZ9oikE+QxQ77PzyOFhiOXAzSOZXpOQXszi7FNcxmSCbXRIbfCf75A9slqiRfYgwHWi5qRzfZq+iZdZ+f4Dy5EWE8O7Gdl58lJUv9mXb15UbcZaXGS9SkvpYkLlIy9r2T8zBYWBMKHhPdWxT/6GOj/4Mq0WAm4tees+jcnwl4//kCsDVic2yOgNA+JeN/7rxUdCdLS/V2feA+zeaZvyKXU5/uU8+K5Jh0ub+bOdeOrbb3j+HOn7X8B1Y/x/c/SlfENn7w393m+3FXHkn//1W+v0tYur6/+HfT9Wfbw/Tn4Ao//5tdP9naRaclcsv0p/MpLHfvU/F/6rnYwOlLOuVeT4+sOdn43v6no1Vq892nXnatX5JYUyC8uyQiebNb9nhQil4lqlExpkfukOlAk+lmRFpn/4yLs0WBb8OiEwo5QVKhaIo1O9SXWyziZe4LIDVKbYb22KrRH9g7XOP4l8tjA63INaTzfCY4vhXF3hqski0ZDM1yS+L9pf+UC2CbGZo7Vebgl/mEh1If7GLdWScNtas/wpVbV9SP5OpivXrbEU4iTMVgfZNtMS6xV8N1dom9iX/vNS2xH/JjGk6KqlvfnmsK9f6vIlaSEatImsSy031Gh4yPsSmkv7R/qX9E2p7NvhldCP96tDHR+Jftlucaw3Gl/RkGVvby+ZoffybkjoZdeVGTtF7Xdu4PL43knHf/P7V96cDMJZlMssN+YnNjWx09Bg/E9tL7p+DH7+GQvV7I7Z72f/OvZi66FxrOL7q/E9Fqy99fya+lH6+1/qXa6/Wv7/Ftyb+l9WJr5d9P1lw+qiYX5lst3lxncS/8u/nmu/PWEGxTYnuOvn68818nkkj9/nDdaBCV7Fv2cbFdersa+B/zfOxscI8J5tz826um2fUQ31+Nv7CHPC9hkColOcEMmW1JZiS4CgOkGRKYjqSkoAp304CJvPw3jT4KkvXiu7Sl7bf2Oa+u/Fapn2Jz8U3b8EHbyZ40h8uJijxPBVMTCCSaF2Tm2nv1CkJCMLFRHmeDXzyAUql/PjLxwZSWpsKdHCVBFpZ2SbAMs9pefmh++FZ4ItE1+lUtLryNNhLbAjMoMl0mMPIGOWU5+1LPtydh2D3g1/aFdrkCCw5XNOj661dz8g/9PHh9HXKzV5rMr6k2RrDVJZSdePfVK2SUafDyCh7byR7w/s3Mx7Th8XEkqb8mvhX5sPa9Wc1fst6PHt9jVG2OBm/e9n/9l60JttrTcdXlf+7vD9j+ys+3+v9q/98Fm5V/huuZXXWrmfur2afb2syjFLnvbBOTldS3fa/nK+1W2uTMEoDXEdn5rMrve7Ir3n+kCZNxs+ajakue1BYZ80Xqe/YV+d/ybOi1WqPJCFQ9sz5HJ6fDYlW0w4/ffqUZsx2cbBT/V1gFcoqQWDgTAXMc5itdFgTAvMz4OQ8X+Nxz91phBlNXeBYFpmkoaE9dqdNmjbxtMYxMA+BYddcfch7F8OVQrhYYDIJcHwMXF2coLfJgvbgNDPVM7YqmuL85ALHl6H8oAClQky8h9grbfuYqZXjfwBJPCby7fusCCCAbn+GRQBcfSiYw7mxaR48T9iNc1MWNxa4Jw2f3/jA8gNkFqF9tRtftl085/QRxn9Gw/ZONr1/+yNMvCu8m0aIPl7jxptglLn3HsDvwd49w/G7KbOn0v/P7v6sun+2OL43GTeP8v2+iSFfso3z/LHv/jd8PpblNbeT7FIdl+hzen5uFXzterfBXetHFxjOytdFTWWNlXnOloDlCPCO9dDqAme3sOuH5HIEfLgF3jjBze19Ul/mzfon7rCsPz49Bs6dwDDSa7yMTVLuriErkpiZrzsDuo5tRfUbX4vXbfj42OtjOJxhNlshnATAzR0kpl17RUtM32UfTdfquBfCO9wgwOueGBwhmo5xnV9y5dbPH3ff4My7wcV46ewmKGur/Hhnx+6bM3i4wsnAlkfLQbwWxfDNixQ77m8B73UP6J8iyLSPsBy8wxUCnMoDZF25Ee6dYb6SwPIKJz07H9wUb/oe+3dzgXOzQFDm/8cLjPIS9XqzTYLmvCj3/LmNDxk7J1fwJiEkeG86vnqv5ReF+2SMyj2ixyceOv7dvqg8ru7/UvsqZQLN7O9ieJmsk+td3MA7eyMfyfGrKb86MzYufzbj95n0/4Hdn+bzfWwWGee+X2vvn4bje+P7v+7Ga/j5trH+pt+/dXbmyuP16/KAUCe/5vmj2ecjsFP/a56PBY2s9bos2eHw2T0/mxRYk/ddr7natf48o3RdlC6IdzsJnNySO+3Q1HHK13ZK1GvA4pyUtJ3o6Yt6VxhJ19p8VXKcn10m67rSOrLGLJfflWmObnm8dszYVrvbYZKGNtPt4vVDelplZtqCGKWnBcV1ZbqDe66nHsIL0imXiQkLFZhpg16gFhPZjQl2x8A4NW6n/uXT+/Easli2p7zJxMqSdVZ6nVQsr8i+2IBQTWQdmqUu30kAAA2KSURBVLFP1lUFzm6Fsg7K2Bfb5eny7JSMbHtnamW4yMj3ZP2WmZYq+ivKU/vN1JEMi9y6sdR+O40ybS9lZf6HDjPx3RMWRrYeJHqtQmZtnCnS0xSs/y30P7vx4Sl3/WAy/MrGVwo4mQqSjkEz/pLyqvGva8TTXIv6x0wxsWXmPrN9mMjQY92MQ9e0+Nj1IWtfMvXGyF3fFazeflFgPoPy4zK5f4rvT7ed1Z/4avwruYe1n7X3z0GPX7eTD7H/i/r+AO9P9/NdvnvN96tZt1z6/RbPeY/XPGc+H9a+v/V9VvL5ZO9dcw+ae8+sn9bXS76fGn8+bKA/HuFNvn8rvj8znxHpd7CzPr5CfnKHVT9/7Lv/7qdEPBJkR0NnnwGzpitfz5wf/vOz8TR578hbLljnKQmQAAnEuyf2rs8QroZphoFYSIAESIAESIAESKANAclsYb6tZSxtNO9n3VbTDne65grArvXvZxfSKhLYEoF4aond5r93fYzFnIHXluhSDAmQAAmQAAk8SwLyp4y2s3/AYeBj5usw+pFekAAJkAAJkAAJkAAJkAAJ7DkBZr72vINoHgmQAAmQAAmQAAmQAAmQwGEQYObrMPqRXpAACZAACZAACZAACZAACew5AWa+9ryDaB4JkAAJkAAJkAAJkAAJkMBhEGDm6zD6kV6QAAmQAAmQAAmQAAmQAAnsOQFmvva8g2geCZAACZAACZAACZAACZDAYRB41pmvaAqcA1iV/MXtw+hiekECJEACJEACJEACJEACJLAPBJ515mt8AcwZeO3DOKQNJEACJEACJEACJEACJHDwBFoFX99+++1OgbTVv5wCvg8sC6yWrNftBOgWlO3zJfkr4UX+iM1SNpjus/W0jQRIgARIgARIgARIgASeL4FWwdenT592Sqqp/mgJDHzg/ghYrYB+gdVlWa/lAOh09D8JZnxgGlkBU6fcDewkmJN2/gDwnfb5QKlSvrbb6M8EUlEi9+IGODHyO8DAUSB/QXx0pG12rlvreUQCJEACJEACJEACJEACJLArAq2Cr7aZp207Vas/AiQ4Gt8DsxUwLIq6AJRlvSQw+nAKKKX/zQHcWC8ks4SRLV/NgQ8+ILFZdwiEE+DmFrgMkzqLY+Cdk4mqky9R4mhu5Z/eOcFVF1gpYOIBC2OfAmY5H7v9xPej+yQQjJzA0XrCIxIgARIgARIgARIgARIggS9NoFXw1TTz9FhOVOqXzFAvCY5mNeu4JOt1WVDnw20umOkCMwUMZW5iBFwf62PjYBc4PQY+OgFOcAn09VzG/qmpmLxXypcqETA+t5m3d7fZ9m3O+kNgNQLOe9nMXRsZrEsCJEACJEACJEACJEACJLA9Aq2Cr9rM0/bsKpRUqV8yQyGAcfW6J5P1yiWMUn1OHJVe2+ZBlfxBD3h9aTNf87PNNcfr3cbAPMwFjJuLZEsSIAESIAESIAESIAESIIEHEGgVfFVmnh5gRNOmtfq7wHBWve6pLOslNkgW69yZJihT9mTNV7yuqguc3eaySBEg2aw3DXftqJQfAbce8Eayd5IEWwLj6+Q4//+9juAkkJT1ZW5Al1nvNgO6DW3L6+A5CZAACZAACZAACZAACZDAdgkc9N/5kuzPuztgLkGIXutV93e9ZM3YxZWG7AGTy+zaMbfc84BLvaGHBEK9i6RdsABmADonybk3sX9LzG2PnHxXhhcAl6+Bkwtg4mSvJLg6P9FL0WT919xOc5Q1aXdnQN20y+0OIUojARIgARIgARIgARIgARJoQqBV8CWZp8qpf000PqDOQ/XHG2bMOQ3vAV3ApiRAAiRAAiRAAiRAAiRAAhsSaBV8baiDzUiABEiABEiABEiABEiABEjg2RM4rDVfz747CYAESIAESIAESIAESIAESGBfCTDzta89Q7tIgARIgARIgARIgARIgAQOisCTynwdFHk6QwIkQAIkQAIkQAIkQAIk8KwIMPP1rLqbzpIACZAACZAACZAACZAACeyKADNfuyJPvSRAAiRAAiRAAiRAAiRAAs+KADNfz6q76SwJkAAJkAAJkAAJkAAJkMCuCOx15kv+6LA/3RUa6iUBEiABEiABEiABEiABEiCB7RHY68zXoAOMFNDdnr+URAIkQAIkQAIkQAIkQAIkQAI7IbDTzNdSMls+sCxwXbJet5PnFXhNfWDATF/BaOAlEiABEiABEiABEiABEnj6BFoFX99+++1WPI6WwMAH7o+A1QroF0gdXwDzoS2QwKTTAaYSsHWS444PTCNbZzlIrstUxTiwk3q54G6q64isosDPyJByaSt2pjqi5Dwuk/YDwFEfG5KRP0h0WAuBqvLhChgdaZ1FEakriMckQAIkQAIkQAIkQAIkQAJPikCr4OvTp08Pcy5Kgo/xPTBbAcOiqAtAUdZLApOJB1zfAfMQUApQKwDnNnPWnwFqAdxcAO9MvTnQ0xGSBHAY6bYKWM2BD74NoCTw+nBqy9UcwI11eToGRitbvhoB44EtF7uvXwOh2KaA+WmmeexXVblI6vYTNkf3OrjLR3dWHY9IgARIgARIgARIgARIgASeEIEvt+YrAvwecBYCw5pFXLLW61StZ8Ti4GmebS8Bz/gImJlAbgn498DKyZrF/SH6x8Bqlu0dCbjuR4lMyXJJUFj40vY7sVhabeHYKjKudCXPAy7nQN/xt648FSoHLZhl2vGEBEiABEiABEiABEiABEhg7wh8ucxXF1iFAMbV65pM1svEUl+aWGmiqQscezbrFWfedIbLtVWCt7gsBOZnwMl51oO6clM7njY5TrJ8dcGqacN3EiABEiABEiABEiABEiCB/SXQKvh68JqvLjCcVa9rkrVel/mslcPvegxEToT08Ro4daMfp27msAuc3Trrt6QwAj7cAm90Zur0GDh3NrwQPZKpGuj1V1JetfV9vGGGWaslMo8A79haUVcem+Suh5sBXSdrZiXxiARIgARIgARIgARIgARI4KkRaBV8PXjNl6aztq5JX2+S9To7BcbndsONI5nWp9vLdMXOSbLmy2yKYQInqSLrxiTzZsr8c+B0ZXdUlDVjZ3e2vHcOvL60Uxql/NIplw051jbd+OC0fwdcjrRx5q2iXIKzuvVwRgzfSYAESIAESIAESIAESIAEnhaBL7fmqwGXojVdbrO6crcuj0mABEiABEiABEiABEiABEhgnwi0Cr4k8/XgqYcbei+B14XZ7ULWXpVtjLGhfDYjARIgARIgARIgARIgARIggcck0Cr4ekxDKJsESIAESIAESIAESIAESIAEDpnATtZ8HTJQ+kYCJEACJEACJEACJEACJEACRQSY+SqiwmskQAIkQAIkQAIkQAIkQAIksGUCrTJfW9ZNcSRAAiRAAiRAAiRAAiRAAiTwbAgw+Ho2XU1HSYAESIAESIAESIAESIAEdkmAwdcu6VM3CZAACZAACZAACZAACZDAsyHwqMGX/NFkf/psWNJREiABEiABEiABEiABEiABEigl8KjB1/gCmA/XdS8HQKdj/w2W2TpSvlHQtrQym7QfiA1+VjfPSIAESIAESIAESIAESIAESOAxCDwo+FpKZssHcrFTbKdkvW4nQDdvdQS8uwVCBSj9b9bPVurPgFVB0JatVXDWT2SGk4KygkszBQTOdflDzgNm6hwiPCQBEiABEiABEiABEiABEtgWgY2Cr2gJDHzg/ghYrYBc7BTbVpT1ijNePeDmBuiZzJebearLXEWJXpM18wdA1IZErn0+4zZcAaOjRMe0KKJso4t1SYAESIAESIAESIAESIAESMAh0C74ioDpABjfA7MVMCyKugCUZb0ko6VCwPNs1kutHGtqMlfTMTBa2barETAeOO1rDgfnwOnctj/9AFzl2nT7iW9H90Ac3LWK7nLCeEoCJEACJEACJEACJEACJEACmkDz4CsC/B6AETCrmRIoWa/LmjqteyACrq+cjJlkznrA1VXxtMc1+Uvg9gzoO/Mg+yPAW6uYXOgPAQnuznvAlAFYCSVeJgESIAESIAESIAESIAESaEqgefDVBVYhgHH1uiiT9SpJijW1a71eFzh2M2bOmrGt6wIQr2cbA/MQGDoB27phvEICJEACJEACJEACJEACJEAC9QSaB18iqwsMZ9Xroh4l66X9OD3ecBdEad8Hjq+BpZPFWo6BmxyjzHq2GdBl4JUjxFMSIAESIAESIAESIAESIIFNCHSUkj0HN3tJdujdHTCXIEWv9TpH+U6FspvgRT7aCQA1S/TL1u/5NVhSslB2Uw/ZtOPEVPIA79jqr20vG26cA1fahmAB4AS4kozaChD77s7qp1VuRoutSIAESIAESIAESIAESIAEnjOBBwVfeXASvGDOaXp5LjwnARIgARIgARIgARIgARIgga0GX8RJAiRAAiRAAiRAAiRAAiRAAiRQTKDdmq9iGbxKAiRAAiRAAiRAAiRAAiRAAiRQQ4DBVw0gFpMACZAACZAACZAACZAACZDANggw+NoGRcogARIgARIgARIgARIgARIggRoCDL5qALGYBEiABEiABEiABEiABEiABLZBgMHXNihSBgmQAAmQAAmQAAmQAAmQAAnUEGDwVQOIxSRAAiRAAiRAAiRAAiRAAiSwDQL/H856VHtmfdeJAAAAAElFTkSuQmCC;" vertex="1" parent="1">
          <mxGeometry x="520" y="250" width="785" height="110" as="geometry"/>
        </mxCell>
        <mxCell id="6VEUIB0EuY8hzefAT8qt-25" style="edgeStyle=orthogonalEdgeStyle;curved=1;rounded=0;orthogonalLoop=1;jettySize=auto;html=1;fontSize=12;endArrow=none;endFill=0;fillColor=#f5f5f5;strokeColor=#666666;entryX=1;entryY=0.5;entryDx=0;entryDy=0;" edge="1" parent="1" target="6VEUIB0EuY8hzefAT8qt-14">
          <mxGeometry relative="1" as="geometry">
            <mxPoint x="520" y="299" as="sourcePoint"/>
            <mxPoint x="364.5" y="360" as="targetPoint"/>
          </mxGeometry>
        </mxCell>
        <mxCell id="6VEUIB0EuY8hzefAT8qt-26" value="mo_policy" style="shape=cylinder;whiteSpace=wrap;html=1;boundedLbl=1;backgroundOutline=1;fontSize=12;" vertex="1" parent="1">
          <mxGeometry x="212.5" y="450" width="85" height="50" as="geometry"/>
        </mxCell>
        <mxCell id="6VEUIB0EuY8hzefAT8qt-33" style="edgeStyle=orthogonalEdgeStyle;curved=1;rounded=0;orthogonalLoop=1;jettySize=auto;html=1;entryX=1;entryY=0.7;entryDx=0;entryDy=0;startArrow=none;startFill=0;endArrow=none;endFill=0;strokeColor=#666666;fontSize=12;fillColor=#f5f5f5;" edge="1" parent="1" source="6VEUIB0EuY8hzefAT8qt-32" target="6VEUIB0EuY8hzefAT8qt-26">
          <mxGeometry relative="1" as="geometry"/>
        </mxCell>
        <mxCell id="6VEUIB0EuY8hzefAT8qt-32" value="" style="shape=image;verticalLabelPosition=bottom;labelBackgroundColor=#ffffff;verticalAlign=top;aspect=fixed;imageAspect=0;image=data:image/png,iVBORw0KGgoAAAANSUhEUgAAAYsAAABqCAYAAABNj30YAAAYcUlEQVR4Ae2dPXKjztPHW0/9j4J+wZZPACeQnDhy6gxCKXHm0NkmUihlTh05WekE0glcGyzchad6hoZhAPEigZD8ddUuaJiX7s8ADTM99CSO45jwBwIgAAIgAAInCPzfiWM4BAIgAAIgAAKKAIwFTgQQAAEQAIFaAjAWtYiQAQRAAARAAMYC5wAIgAAIgEAtARiLWkTIAAIgAAIgAGOBcwAEQAAEQKCWAIxFLSJkAAEQAAEQgLHAOQACIAACIFBLAMaiFhEygAAIgAAI/K8OwWQyqcuC4yAwagL4SMGouwfC3QiBWmPBeuBiu5HehJgFAnjYKSBBAgh0IoBhqE7YUAgEQAAEfhYBGIuf1d/QFgRAAAQ6EYCx6IQNhUAABEDgZxGAsfhZ/Q1tQQAEQKATARiLLtj2AfHEqfrnrSnqUgfKgAAIgMANEbgjYxHR2uMbeED7vjtgtqE4XJFb004U7SnwvMywsIHxPPKCdf8y1siGwyAAAiDQhsAdGYs2al8gr/MfPZyoJlp7NJ3O6fvhjcI4Vu7HysAcj3TcftI/vI6coIdDIAACYyNwR8bCocWBb8obml2b8j6g6fJI5O/osJmRI/I4CzrsfPk12u0+4DcgDK+NtoMgGAhcgcAdGYsr0CttMqL1+5aIXFq9lpit2RON21xE9O+7VDEkggAI/GACjVZw/2A+7VXf/yZ+qSD3mR7TVwqzmhlt4hIjYma55n70hz6V/NcUAm2DAAiMjUB/bxZRRPt1QJ6adBbPIWvyOVqTJ15FycR0tA+yNB4K6ZiHSCa8k7a5nUCmvu1jHq1lDqGJ3Cd6MZLH8of/suGnE/n1oTJWHgV7ESqpwGSRGybaU5ByNHUp4ct9Inm9INObiPaBR5PpkthW0HFJU8k3mVCwLqkr11cBBWZfN+VdywYZQAAERkEgrvnTn4aqyWQdDlduzOXI38WhOhbGO5/StHz2MF65fMyPfd+P/V0Yh7tV7HJ5d5WWb5NnZzQg7borLUl2KGtX8reTexf7ORl1zdXtZS3be1KGddd/Ga+C3KHNRmoTfdw4r2qW7rpuvJI2pB7yY9Ff11Sul8hV1w+iS0HuWOSw2xP5+9l2OX/7kQS1gsBtE+jvzYJ82qWTuw7NXhNX0+9/FesStkRPG9rMHHJmC3orHdhvkidvg2dPuqLj3zB/gEL6eyRyV6/WhHhbua1q2/7cBzTfshyh0l0Xd2i22am5jePyJff0TzVeWNXNH+nh7UCLWTI25gjj7w6eWdX90J53tcQ4AgIgMB4CvRgLZ3EoeiXV3uR8ejKG8mebmOLDwhrKaZLHgjt7pRUviNh+5dc27L9oSz69LbKJhW5yW+21/Ln/4slwoof/Mjl0FTPSdu5In3+s4aiWbejseXZZFUcq2NHsYMVevq5cX7XgXVE5kkEABEZIoBdjMS49HXp8VtaC3rOJCeWxVHyruJzkxTeZsrrF88ilX9Pi8emvumV/xTJtUvqp/zq82+iNvCAAAu0J9Gcsoj2t1QS3l0yozkk/Q7cX8twSzuOzWm19/Pyjh8CUx1L+rSJt40y50xtw5XBb2tLd7jiLNz2E1oT33VKAYiBwXwR6MRa8enkyndMnPdHHx4EOagWzHoO/Cj4Znz9+Eo/o8NBP2VvFJeQWw0THv2TPkmjd2XPJ8FhSieVDQSFPqpQOUemaxvt/MoRm8Cb/yZobGq/0kAwEQKBI4PLGIlrTi6xeXszIsYfiizIMkqInXo/0+Tug923JW8Wl5BbDRFtj2CtTMVq/G29YMmTDUyri1it5ZYgqPz8gR4vGSE/Yp8fP3ak0ds0qFt7LF4/etxULFJtVhVwgAAIjIHB5YyET2TyhLPOy6oN67/TNQ/CFm5Dc5E555VwgT7Jy+rjd0rHsKbe13EnvFfQhw5NpmlsrEe0TQ2p0vLP4SCbg50beiPbBi1rcV3wDkolvwxjx0Fnwpfkadevdanby5pIvktX/lXQgr30J1HxPdV35OohIJrr5W1j+Gxl+BIWsSAABELgBAnWev5381HmdhFo7wesn3NhV6y3Ez16n6bUAiU8/r1dI/vl5p/84jrvksdcaaC31OoryYypHU7nTNQoid1mdvFbC1etFDP14rYPvy/oRoV/M67p+tiZCsqXbXeynfCnhG2drWYhizdFml8kp6yGEe35dhFm/G/uqs+y6pI1UqMJOLe9CicsndDp/Ly8GagSBmycwYQ1O2TSO2VCT5VRxHPvBBNSXd/++UbwxfKIH5oHzd2DgaO5uCcBY3G3XXlsxnsifE+1iuqKtULFE8LBz7XMB7d8DgcvPWdwDFejQiQB/2txL1rKoiXx3RWUf3u1UOQqBAAhclQC+OntV/PfX+PHzt1op/74kWoX2Cvz70xcagcBPIYA3i5/S00PpedzSfPlND7sDPKCGYo52QGAAAo3mLAaQA02AQG8EMGfRG1pU/IMINBqGwsX2g86IO1OVvaHwBwIgcD4BDEOdzxA1gAAIgMDdE4CxuPsuhoIgAAIgcD4BGIvzGaIGEAABELh7AjAWd9/FUBAEQAAEzidwP8ZiH6jVuoH98dbzGaEGEEgJ8MJDnjTnfzd5riXXidLBW1eEOE7VvfAOr+oXfvZn+i/cFKq7OIHBjIVcZNUXmHki6RNKVgNrrYvHq+sSThGtPTk5k61RSGSSiz+39TwK1vuBLyaRG9sxEuDzheOl859/5c+YdOYz21AcrlQwsHZ1yLUU5MMTt6pkRps41F9ZblXu0pkvocslZRqbPOW6DWMsojW9JxdZMW6DCMYnUhYgiS/GQ+671uaJ5tIqbPLNIYcWh5h2vm7DXYW5j9px7OhQBegmUsdUkKaY4nBHKzrSdjmn6eBPX8ID2zER2AeeYSjCq37v6mwu8jn+syvqUoFD/z10KYcy1yYwiLGI/nzS0fdVqE06GW50SjrsdHlMaiI50R7ovw5BlR6aFnJmtDgkhuu4pN8Y2rr2eXrV9rWh0FEL/R0big4n31U1aN64etsufUDSD15xvLmZiIdj02Vs8jQ/K3TOAYxFRH8+j+Q/vdITP+EnoTbbCjp8fgkCRPT9T6I4DS8FWrwugZ9kKIgkOuN1mV+m9bHpMjZ52lPu31hEf+jzyKFBHZqq14YjfXIg7Bv40/JycL/yaNo3oAJEPIPAzzIURKSu1TOAjano2HQZmzwd+qp3Y7H/vUzDmDqPz2pi7fj55yYmjiXsqPtr2gEtitwygd4NRbQmL/UM0pPG0TrI0ryAkq+9E4e19VJHDS/vhWXWkxs+Mh1C6j2PWN/JdElqsO24pGkq24SCdVHWZn0b0Z51SmWf0MQL6Ou7unSOwWRCnhdk4ZmNYnkmiUOMp/XspIvJcXK6PwwxiKJyHc2R607ypI2U1c/ngPXA3VX+tJ0GO3Wx/s4LS6lDcWahUiW0ahbeM99+3XEJHerHxeirvgrNmrWV1SwhRMuO6dCfFOfDinJZCSNaJWtWP/bGS6DL+cvhcCXcbOeta4fOLWOUne8cbne1C3WmNGyvH/u+G/tGuq9C9Frnv+QvtJnVr8MYiwzJuV3IX5XO5aQuq22psmSbXXeJXlzLTl+nHG45L5Nc2yYHuQbzbRav2TDerXSfZdd4F11ERzeu6g/zviNysGuc1pDDIyehljNBEjJd5BEmHMJYGGZtFO9Z7eQv6bKTSf2+Wey/aEs8BCVWy6HHZ5cnLmjUIzvRngJvTuzA5a4+8Klt6T5seyJwpIe3Ay1k4tx5JHWZ0Ja+f31kE+rOQs/70Za+zEfXq3o3VSDZB9p7zN9l8hORM3std51N8vv8afuUw4xelbfilt7lNYuI9Bu/S8+P4mjg0GzxUV5vhXink+3+WNCb8qj8puL0pU+7zYy0JA7NXhO35JOOPKdbT48mTNhTM3OqcGi20c43x+VL+vaZllE7beTPlzz1q1djsf/aEvlPOe8JJ/Gbq3ahPSVuf8eOy2m62GoyndM3+bTahZb7bn/to+bxEJhtDrTz+aFG/7EHFH95udW/Q5vAT+YDFbcpXn/mDVHLIvNoiWij3ahrn9ejZE+KiayiW150nb/oBZkOXReeLo+0fDGHqLS31mVC+Nr9IbLmH3KdxYEK3mEXNNzCsOjFKc43VfO/zeQXrZpuezQWe2JbQdt5dhPmcVBZ1bT9OmNxT1P1mufLrbOIYzocNtkTTvNqkPNOCJgGYzufFseI70TPftQQz5/izb+8Pcl/pOXUWkQr8yjGk/psE9KKjTkH2uL8PL9jj+GXN9Q5dXgjLUzKGbaVp23+MlC9GQsVg5l82pU8kelFctardJl0SAOBKxKAwRgafvn9Qr3R5d7UHFpsDnrxbGI0lvMpTXIT/APJHu1prSbxvcQ5QQ9fD9T6oM30ZCz02gp7CEo0EytXHIqSV9T8656Uuy8/8Ewr7I2XAAzGePuGePGsGA01FTrsAtpozR5kc/qkJ/r4ONBBPRhnX6G4DLnye6F4ahaHqC7Talkt/RiLxKe4OF6pRZBxSCoZihJDUroQTnyVrXmQMsWQBgKXInAzBuP4l/IrgkL6qxeet0NRqKddcZ5zEUeW4poqGV4x65T8TUYb2CXYcgV2Zkl7Zp3J/tm6lNTJSdGaXpZH/kgYHRYzcmSuvSJ7mtxYHmFCVHyoFoZVcxNpaxfd6cFYRKTWVjQSs3hyOIlXA08453yJ+XXvhf3AtfdBo+pbZMLCuxawfmBWbTC04noO4xIQ5GZue9nIzaD4VClPlPmHKZnwNLyG+HoJvug7m6cvCly4cWX1fCVzALyeIVCeSFWyFqvlFGfxpj7vk/PYUTL9pk9VJK+b5N/Ovfz8gypjrS0hntxeZ+svor36SgSROb7fRZdqHYV7qq1MZPMDryx5UF6U75r5BdjKvZDnfbN7YUT74IXYTrmr15zzEFEL+VNFWuycdKzVwbfrshjHxS868TVmn3DL3zj1TVb+4jpfmb8w+7q7Rh72y3ZTf2ajSdlN/Let5tRR8X22j0l65kuf9+eWqrG9XQJd1lmc0tY8Z+zz6VS54rHitaLrE1/57BqS68Nsm/WSdF33LvZdo0xyrZhlVP2yJiO9tuz1DmY9buyrxRC2rHaZonYqJVxZMq1iXi5gypTXIYxX1hoX1/VVmawFXmfA6yAyXRWLQj4u0UaXah1NeXPcdytDDrk/mf1nc2ojj2ic6Jv2F8XMJF2TI9nSdWHCJWu7Uv60bLOdCWc7ZVv4s901WU4VH+4Yf6d/vi39dLR8WvpmPys9HMW7a+lmzt+7Iw+F7o1AD8NQY0Mkr/TDju+NjQLkAQEQAIFzCNy5scjG9/zd7Xxa+ZwORVkQAAEQ6IPA//qodCx1RusXev9+oF14IPmCwFhkgxwgAAIgcEsE7tpY8HL8w+KWugOyggAIgMA4CTSa4B6n6JAKBJoRuAkHjWaqIBcIXI1AozcLXGxX6x80fCYB9obCHwiAwPkE7nyC+3xAqAEEQAAEQIAIxgJnAQiAAAiAQC0BGItaRMgAAiAAAiAAY4FzAARAAARAoJYAjEUtImQAgYwAfzqGJ835X2CGNs2y3PYefzYn0W+4+BD8JVnhan1R9rZp3pX0lzcW5smWngByIhS3csGZF6E6Wa1AJnXH76pXoMwoCcg3xli44b4zFtHa4+smGCay5GxDcZjEkR6sF2a0icMLxtDuKvjArGvFHJc8lzcWAsBfUZhEyQtV0HX+pK7EMi6eGLNNTJKPvxEf5yJjEdUdl2axBYE+COwDjyQiMMfkvkys5z4kvUCd8vntC1TVvAoJfNa8BHIOS6AnY+HS6vVUwHqHFh/VTy/ur+lJCnXHTxbGQRBoSUAbCh1FSBuKppFuWjZUmt2hxSGmOMa3zUrxdEhUoxTWyIWu5jqsxyZPFdJ+jIX7TI9115PzSM+nArNUSYx0EBiQwHUNxYCK/pim5CvUY1F4bPJUc2m0gru6eMkRHvOclaQXkrQVLyQjAQRGQgCGYiQdcUkxJDTzWB5UxybPCdb9vFmcaBCHQOAWCAxlKDhsqacmsDPnD89LPIKiNXmpk4gxwV2SHq2DLK8XkIqEaoNWYT+9zNsprTtpW7xN7HLW71xbkwl5XpCFFrXylv+MaM/ymnp7AX19l+fm1KZtnuLJfTqZcmhmIjouaWroH6wvzbpcR9OBrpM8KaKy+jn8rMR4TTJ2PVfSdoyduoB6lwhLKaFU8yEUiy3X5as7XqwRKT+dQJfzl8N2crmz/rmrOKyBXzyfw3i30m1nIVslTKcd8lfSOcSom4XZTMOmWvkl3dWhTVm0cOfr0MUFWZMQo4V0CYlqtifhSK32TuguYT59jrGa/LEsmncWDlSO6fz1bTbjWa1bHAtTWxdJb8Za5GCXOa0hh0ZNzqesYxP1usgj/UBxxjBro3ifbSe/cLe3HDL15F+Xi82uUOAVlcjnlHx1F2ldPfla8esnE+hy/g5lLNKbYHbP5Ft4vHL5JiC9Jhd61Q3MzKvLlNUr11ZWb3VeFbuajaVtLCri3Evdja5LMQq2IOmN2jIWLdos07vIs8vNWfqgDWurvwxjnetuiZ1ts1bdI+1adSVMirzFcFsMU7bN5Jczz96Ochgqc7FlL5DsX+paa7wZYRcELk1gtjnQzs8GtdkDyjwPG+1brt/VMh5p+WIO4+i5vOauuVXhgo/0N8xaDf/y4ItLtqPh9Bfrmc+blcrv7b+2pXU4j8+kajEbzBdNf+k6iPwne2Kz3HW2fZvn8kxFLdlpxprj6BS81y7ojiwMH/6zvYhm9OSz2Ef6/GMNRyltmslforhKGqWxqBIW6SAwFAHTYGzn0+JY8AUEmW1CWrFROm5pPp3QhOca7DHnDu1oA1BWsGgUqoxIsbR47RxpybIa4/3pPMD3Pyq7RWV1SR1Fo5XlMfckf7M2++JpSmTvV7O2c17qtzApZ9hWnjb5YSwu1Yeo5+4I9G8wHFpsDhSHu9RoLOdT6uMzG7NXva5p+75OJ6Oj/Zre+WXBf6OF/ZBa2Zs+7Yy3/dxbVuO3qcrKKw40bXM4nhWCZsnRntZqEt9LHA/mxKhv+Q/G4pZ7D7L3TqB/g0FEziwzGmo8Z0m/TbeZS2jpLOiw88k9LvVbzGRC0/knPax2FDYf87qEJP3XMQTPE1pEa/a6mtMnPdHHx4EOyrjuSI0QnSjX7lDxLZHL6zdFouIQVbvay3LDWJRRQRoIGAT6MRj88Tzro3nOjB77WqnKbrPvRG+5t4IDbRYzavZS4SSybemrsyGTOsrG1GV4xQBPkr9Jmy15Hv+SMaVjNnrefrSml+WRPx5GB2bbDC5RY3mECdG20BHCsGpu4jzVBjEWYu2ODSbAWJ26fHXHz0OC0iBQJKANhk7XcxjFPO1TeDI2GxaiaE9/Pu2J6JDU3DR907/chEBVevZ0acoT/XmnLVedq8PMUbJv3cCcxZt6Ot7OvfzcCg+5BOzjX1KHlSR1HJcv2VoQVf43faq8+Sdmyd+szSY8ZRKYDZCGwWszArUwpYppVXoJa5nI3n6lw33cr4H3Tt/aC8AyUu3lcRYf+qOL27kxlxbRPnghtlPu6pXy7gMt5Lf6K/fTdo+yf3dxPczqEFcu02fdcgNLMqd+yOLfbrmS1R3P2sQeCGQEzjt/s3pkzzwPC96fkqnRlv3i2W/fvDYodl0/zpYf2NePuERWpWf+9+J+Lu6V4t4q6fmtm/nri4unXIckbYpSYbyy1qHkZZZ8J7bhKvYNvV1fr/0w2YrcupYmbTbhKTLtjPbd2F+xM2sV06r0atbxbmX0qxu7ar2FuMFyf9tM28gjOiT6pv2kz51VdvIkGTvIL01Y2wn/zlkP6wd7PdRksUrgJwiMhwDOX+kLHqY5Ncnq0io8tJjolnqx/SkEBhmG+ikwoScIjJMAx0WY09bNwgZkXkwh7RLf/IajxONUEVL1TgDGonfEaAAErkxg/1uPZT8/lkxmOzRTK7nK/favLDmaHxEBGIsRdQZEAYFeCEx/6RXWn79pH+VnuHmthcdRnVqttehFSlQ6cgIwFiPvIIgHAmcT4DUWvPDv4Zvep9Pc6uuX97/0zJ8zube1FmdDQwU2gUYT3HYh/AaBWyIAB41b6i3IOlYCtcGPcKGNtesgFwiAAAgMRwDDUMOxRksgAAIgcLMEYCxutusgOAiAAAgMRwDGYjjWaAkEQAAEbpYAjMXNdh0EBwEQAIHhCMBYDMcaLYEACIDAzRKAsbjZroPgIAACIDAcARiL4VijJRAAARC4WQIwFjfbdRAcBEAABIYjAGMxHGu0BAIgAAI3SwDG4ma7DoKDAAiAwHAEYCyGY42WQAAEQOBmCcBY3GzXQXAQAAEQGI4AjMVwrNESCIAACNwsgf8HCAmY5EotiZkAAAAASUVORK5CYII=;" vertex="1" parent="1">
          <mxGeometry x="520" y="450" width="246" height="66" as="geometry"/>
        </mxCell>
      </root>
    </mxGraphModel>
  </diagram>
</mxfile>
